<?xml version="1.0" standalone="no"?>
<!DOCTYPE svg PUBLIC "-//W3C//DTD SVG 1.1//EN" "http://www.w3.org/Graphics/SVG/1.1/DTD/svg11.dtd" >
<svg xmlns="http://www.w3.org/2000/svg">
<metadata>
Created by FontForge 20120731 at Wed Sep  7 10:00:25 2016
 By admin
</metadata>
<defs>
<font id="iconfont" horiz-adv-x="1024" >
  <font-face 
    font-family="iconfont"
    font-weight="500"
    font-stretch="normal"
    units-per-em="1024"
    panose-1="2 0 6 3 0 0 0 0 0 0"
    ascent="896"
    descent="-128"
    x-height="792"
    bbox="-0.76 -212.651 1026 894"
    underline-thickness="50"
    underline-position="-100"
    unicode-range="U+0078-E656"
  />
<missing-glyph horiz-adv-x="374" 
d="M34 0v682h272v-682h-272zM68 34h204v614h-204v-614z" />
    <glyph glyph-name=".notdef" horiz-adv-x="374" 
d="M34 0v682h272v-682h-272zM68 34h204v614h-204v-614z" />
    <glyph glyph-name=".null" horiz-adv-x="0" 
 />
    <glyph glyph-name="nonmarkingreturn" horiz-adv-x="341" 
 />
    <glyph glyph-name="x" unicode="x" horiz-adv-x="1001" 
d="M281 543q-27 -1 -53 -1h-83q-18 0 -36.5 -6t-32.5 -18.5t-23 -32t-9 -45.5v-76h912v41q0 16 -0.5 30t-0.5 18q0 13 -5 29t-17 29.5t-31.5 22.5t-49.5 9h-133v-97h-438v97zM955 310v-52q0 -23 0.5 -52t0.5 -58t-10.5 -47.5t-26 -30t-33 -16t-31.5 -4.5q-14 -1 -29.5 -0.5
t-29.5 0.5h-32l-45 128h-439l-44 -128h-29h-34q-20 0 -45 1q-25 0 -41 9.5t-25.5 23t-13.5 29.5t-4 30v167h911zM163 247q-12 0 -21 -8.5t-9 -21.5t9 -21.5t21 -8.5q13 0 22 8.5t9 21.5t-9 21.5t-22 8.5zM316 123q-8 -26 -14 -48q-5 -19 -10.5 -37t-7.5 -25t-3 -15t1 -14.5
t9.5 -10.5t21.5 -4h37h67h81h80h64h36q23 0 34 12t2 38q-5 13 -9.5 30.5t-9.5 34.5q-5 19 -11 39h-368zM336 498v228q0 11 2.5 23t10 21.5t20.5 15.5t34 6h188q31 0 51.5 -14.5t20.5 -52.5v-227h-327z" />
    <glyph glyph-name="uniE600" unicode="&#xe600;" 
d="M960 617q-13 -49 -30 -63q-68 -54 -137 -124t-148.5 -156t-126.5 -133l-11 -11q-17 -26 -39 -45.5t-50 -33t-51 -22t-57.5 -19t-53.5 -18.5q-14 -5 -31 13.5t-13 34.5q37 131 50 172q3 9 20 25q45 43 124.5 119t145.5 139.5t124 119.5q14 14 27.5 29t33 38t25.5 31
q29 33 66 35.5t68 -28.5q4 -4 15.5 -14.5t16.5 -16t12.5 -15t11.5 -19t6 -21.5l2 -15q1 0 0 -1t0 -1zM722 575l-1 -1l-1 -1l-1 -1l-1 -1l-1 -1l-1 -1l-1 -1l-1 -1l-1 -1l-1 -1l-1 -1l-1 -1l-1 -1l-1 -1l-1 -1l-1 -1l-1 -1l-1 -1l-1 -1l-1 -1l-1 -1l-1 -1l-1 -1l-1 -1l-1 -1
l-1 -1l-1 -1l-1 -1l-1 -1l-1 -1l-1 -1l-1 -1l-1 -1l-1 -1l-1 -1l-1 -1l-1 -1l-2 -1l-1 -1l-1 -1l-1 -1l-1 -1l-1 -1l-1 -1l-1 -1l-1 -1l-1 -1l-1 -1l-1 -1l-1 -1l-1 -1l-1 -1l-1 -1l-1 -1l-1 -1l-1 -1l-1 -1l-1 -1l-1 -1l-1 -1l-1 -1l-1 -1l-1 -1l-1 -1l-1 -1l-1 -1l-1 -1
l-1 -1l-1 -1l-1 -1l-1 -1l-1 -1l-1 -1l-1 -1l-1 -1l-1 -1l-1 -1l-1 -1l-1 -1l-1 -1l-1 -1l-1 -1l-1 -1l-1 -1l-1 -1l-1 -1l-1 -1l-1 -1l-1 -1l-1 -1l-1 -1l-1 -1l-1 -1l-1 -1l-1 -1l-1 -1l-1 -1l-1 -1l-1 -1l-1 -1l-1 -1l-1 -1l-1 -1l-1 -1l-1 -1l-1 -2l-1 -1l-1 -1l-1 -1
l-1 -1l-1 -1l-1 -1l-1 -1l-1 -1l-1 -1l-1 -1l-1 -1l-1 -1l-1 -1l-1 -1l-1 -1l-1 -1l-1 -1l-1 -1l-1 -1l-1 -1l-1 -1l-1 -1l-1 -1l-1 -1l-1 -1l-1 -1l-1 -1l-1 -1l-1 -1l-1 -1l-1 -1l-1 -1l-1 -1l-1 -1l-1 -1l-1 -1l-1 -1l-1 -1l-1 -1l-1 -1l-1 -1l-1 -1l-1 -1l-1 -1l-1 -1
l-1 -1l-1 -1l-1 -1l-1 -1l-1 -1l-1 -1l-1 -1l-1 -1l-1 -1l-1 -1l-1 -1l-1 -1l-1 -1l-1 -1l-1 -1l-1 -1l-1 -1l-1 -1l-1 -1l-1 -1l-1 -1l-1 -1l-1 -1l-1 -1l-1 -1l-1 -1l-1 -1l-1 -1l-1 -1l-1 -1l-1 -1l-1 -1l-1 -1l-1 -1l-1 -1l-1 -1l-1 -1l-1 -1l-1 -1l-1 -1l-1 -1l-1 -1
l-1 -1l-1 -1l-1 -1l-1 -1l-1 -1l-1 -1l-1 -1l-1 -1l-1 -1l-1 -1l-1 -1l-1 -1l-1 -1l-1 -1l-1 -1l-1 -1l-1 -1l-1 -1l-1 -1l-1 -1l-1 -1l-1 -1l-1 -1l-1 -1l-1 -1l-1 -1l-1 -1l-1 -1l-1 -1l-1 -1l-1 -1l-1 -1l-1 -1l-1 -1l-1 -1l-1 -1l-1 -1l-1 -1l-1 -1l-1 -2l-1 -1l-1 -1
l-1 -1l-1 -1l-1 -1l-1 -1l-1 -1l-1 -1l-1 -1l-1 -1l-1 -1l-1 -1l-1 -1l-1 -1l-1 -1l-1 -1l-1 -1l-1 -1l-1 -1l-1 -1l-1 -1l-1 -1l-1 -1l-2 -1l-1 -1l-1 -1l-1 -1l-1 -1l-1 -1l-1 -1l-1 -1l-1 -1l-1 -1l-1 -1l-1 -1l-1 -1l-1 -1l-1 -1l-1 -1l-1 -1l-1 -1l-1 -1l-1 -1l-1 -1
l-1 -1l-1 -1l-1 -1l-1 -1l-1 -1l-1 -1l-1 -1l-1 -1l-1 -1l-1 -1l-1 -1l-1 -1l-1 -1l-1 -1l-1 -1l-1 -1l-1 -1l-1 -1l-1 -1l-1 -1l-1 -1l-1 -1l-1 -1l-1 -1l-1 -1l-1 -1l-1 -1l-1 -1l-1 -1l-1 -1l-1 -1l-1 -1l-1 -1l-1 -1l-1 -1l-1 -1l-1 -1l-1 -1l-1 -1l-1 -1l-1 -1l-1 -1
l-1 -1l-1 -1l-1 -1l-1 -1l-1 -1l-1 -1l-1 -1l-1 -1l-1 -1l-1 -1l-1 -1l-1 -1l-1 -1l-1 -1l-1 -1l-1 -1l-1 -1l-1 -1l-1 -1l-1 -1l-1 -1l-1 -1l-1 -1l-1 -1l-1 -1l-1 -1l-1 -1l-1 -1l-1 -1l-1 -1l-1 -1l-1 -1l-1 -1l-1 -1l-1 -1l-1 -1l-1 -1l-1 -1l-1 -1l-1 -1l-1 -1l-1 -1
l-1 -1l-1 -1l-1 -1l-1 -1l-1 -1l-1 -1l-1 -1l-1 -1l-1 -1l-1 -1l-1 -1l-1 -1l-1 -1l-1 -1l-1 -1l-1 -1q44 -45 66 -67l1 1l1 1l1 1l1 1l1 1l1 1l1 1l1 1l1 1l1 1l1 1l1 1l1 1l1 1l1 1l1 1l1 1l1 1l1 1l1 1l1 1l1 1h1l1 1l1 1l1 1l1 1l1 1l1 1l1 1l1 1l1 1l1 1l1 1l1 1l1 1
l1 1l1 1l1 1l1 1l1 1l1 1l1 1l1 1l1 1l1 1l1 1l1 1l1 1l1 1l1 1l1 1l1 1l1 1l1 1l1 1l1 1l1 1l1 1l1 1l1 1l1 1l1 1l1 1h1l1 1l1 1l1 1l1 1l1 1l1 1l1 1l1 1l1 1l1 1l1 1l1 1l1 1l1 1l1 1l1 1l1 1l1 1l1 1l1 1l1 1l1 1l1 1l1 1l1 1l1 1l1 1l1 1l1 1l1 1l1 1l1 1l1 1l1 1l1 1
l1 1l1 1l1 1l1 1l1 1l1 1l1 1h1l1 1l1 1l1 1l1 1l1 1l1 1l1 1l1 1l1 1l1 1l1 1l1 1l1 1l1 1l1 1l1 1l1 1l1 1l1 1l1 1l1 1l1 1l1 1l1 1l1 1l1 1l1 1l1 1l1 1l1 1l1 1l1 1l1 1l1 1l1 1l1 1l1 1l1 1l1 1l1 1l1 1l1 1l1 1h1l1 1l1 1l1 1l1 1l1 1l1 1l1 1l1 1l1 1l1 1l1 1l1 1
l1 1l1 1l1 1l1 1l1 1l1 1l1 1l1 1l1 1l1 1l1 1l1 1l1 1l1 1l1 1l1 1l1 1l1 1l1 1l1 1l1 1l1 1l1 1l1 1l1 1l1 1l1 1l1 1l1 1l1 1l1 1l1 1h1l1 1l1 1l1 1l1 1l1 1l1 1l1 1l1 1l1 1l1 1l1 1l1 1l1 1l1 1l1 1l1 1l1 1l1 1l1 1l1 1l1 1l1 1l1 1l1 1l1 1l1 1l1 1l1 1l1 1l1 1l1 1
l1 1l1 1l1 1l1 1l1 1l1 1l1 1l1 1l1 1l1 1l1 1l1 1l1 1l1 1h1l1 1l1 1l1 1l1 1l1 1l1 1l1 1l1 1l1 1l1 1l1 2l1 1l1 1l1 1l1 1l1 1l1 1l1 1h1l1 1l1 1l1 1l1 1l1 1l1 1l1 1l1 1l1 1l1 1l1 1l1 1l1 1l1 1l1 1l1 1l1 1l1 1l1 1l1 1l1 1l1 1l1 1l1 1l1 1l1 1l1 1l1 1l1 1l1 1
l1 1l1 1l1 1l1 1l1 1l1 1l1 1l1 1l1 1l1 1l1 1l1 1l1 1l1 1l1 1l1 1h1l1 1l1 1l1 1l1 1l1 1l1 1l1 1l1 1l1 1l1 1l1 1l1 1l1 1l1 1l1 1l1 1l1 1l1 1l1 1l1 1l1 1l1 1l1 1l1 1l1 1l1 1l1 1l1 1l1 1l1 1l1 1l1 1l1 1l1 1l1 1l1 1l1 1l1 1l1 1l1 1l1 1l1 1l1 1l1 1l1 1l1 1h1
l1 1l1 1l1 1l1 1l1 1l1 1l1 1l1 1l1 1l1 1l1 1l1 1l1 1l1 1l1 1l1 1l1 1l1 1l1 1l1 1l1 1l1 1l1 1l1 1l1 1l2 2q-15 14 -39.5 39t-30.5 32zM752 629q44 -43 92 -88q18 24 19 26q17 17 23.5 24t12 18t5.5 14.5t-6 14t-13 17t-25 23.5l-2 2l-2 2q-24 21 -48 0q-4 -5 -56 -53z
M281 61q11 5 72 29l-45 54q-7 -20 -27 -83zM465 -148h-254q-77 0 -119 50q-26 32 -26 84q-1 387 0 505q1 68 40 106.5t107 38.5q31 1 137.5 0.5t137.5 -0.5q12 0 19 -1t14 -7.5t8 -17.5q3 -28 -43 -28h-133h-134q-47 -1 -73 -27t-26 -74v-487q0 -38 23 -62t61 -24
q220 -1 521 -1q31 0 49.5 20.5t18.5 53.5v187v147q0 22 3 25q17 23 28 22q2 0 4.5 -2t5.5 -5.5t4.5 -6t4.5 -7t4 -6.5q1 -1 1 -15v-331q0 -70 -33.5 -103.5t-103.5 -33.5h-246z" />
    <glyph glyph-name="uniE601" unicode="&#xe601;" 
d="M761 414h56v-56h-56v56zM566 414h139v-56h-139v56zM370 23h279v-56h-279v56zM370 163h279v-56h-279v56zM203 107h56v112h-56v55h614v-55h-56v-112h56q45 0 64 19t19 65v223q0 35 -24.5 59.5t-58.5 24.5h-614q-35 0 -59.5 -24.5t-24.5 -59.5v-223q0 -31 32.5 -57.5
t51.5 -26.5zM956 414v-223q0 -42 -12.5 -70.5t-34 -43t-44 -20.5t-48.5 -6h-56v-195h-502v195h-56q-41 0 -90.5 42.5t-49.5 97.5v223q0 58 41 98.5t99 40.5h83v196h447v-196h84q57 0 98 -40.5t41 -98.5zM705 -88v307h-391v-307h391zM677 553v140h-335v-140h335z" />
    <glyph glyph-name="uniE602" unicode="&#xe602;" 
d="M787 623v-1v-685q0 -5 -4 -9t-9 -4h-518q-6 0 -10 4t-4 9v685v1h-71v-1v-685q0 -35 25 -59.5t60 -24.5h518q35 0 60 24.5t25 59.5v685v1h-72zM410.5 -18q-14.5 0 -25 10.5t-10.5 25.5v492q0 15 10.5 25.5t25 10.5t25 -10.5t10.5 -25.5v-492q0 -15 -10.5 -25.5t-25 -10.5z
M618.5 -18q-14.5 0 -25 10.5t-10.5 25.5v492q0 15 10.5 25.5t25 10.5t25 -10.5t10.5 -25.5v-492q0 -15 -10.5 -25.5t-25 -10.5zM922 668h-372v50q0 15 -10.5 25.5t-25 10.5t-25 -10.5t-10.5 -25.5v-50h-372q-15 0 -25.5 -10.5t-10.5 -25t10.5 -25t25.5 -10.5h815
q15 0 25.5 10.5t10.5 25t-10.5 25t-25.5 10.5z" />
    <glyph glyph-name="uniE603" unicode="&#xe603;" horiz-adv-x="1025" 
d="M844 298q0 69 -35 128t-93 93q-10 5 -17 5q-13 0 -22 -9t-9 -21q0 -18 16 -27q45 -26 71.5 -71t26.5 -98q0 -55 -27.5 -100.5t-73.5 -70.5q-15 -9 -15 -26q0 -13 9 -22t22 -9l15 4q60 33 96 93t36 131zM808 675q-10 6 -18 6q-12 0 -21 -9t-9 -22q0 -18 17 -27
q85 -50 136 -136.5t51 -189t-50.5 -188.5t-136.5 -136q-18 -10 -18 -28q0 -13 9 -22t21 -9q8 0 18 6q100 58 158.5 158.5t58.5 219.5q0 118 -58.5 218.5t-157.5 158.5zM81 510h151q19 0 57 20t129 87q32 23 68 51q1 -398 1 -399q0 -13 9 -22t21.5 -9t21.5 9t9 22v26v65v88
q0 49 -0.5 97t-0.5 87v65v25q0 23 -21 33t-39 -4q-42 -35 -115 -88q-111 -82 -141 -92h-131h-2h-67q-12 0 -21 -9t-9 -21v-487q0 -12 9 -21t21 -9h224q29 -10 128 -91q49 -40 102 -87q11 -10 25 -10q8 0 15 4q22 9 22 33v171v2v0q-1 12 -10 20.5t-21 8.5t-21 -9t-9 -22v-28
v-56v-28q-28 24 -53 45q-83 67 -119 87.5t-56 20.5h-1h-1h-168q-16 0 -21 5.5t-5 22.5v373q0 12 3.5 18t15.5 6z" />
    <glyph glyph-name="uniE604" unicode="&#xe604;" 
d="M450 260h-8q-96 25 -157 102.5t-61 176.5v112q0 13 9.5 22.5t22.5 9.5t22.5 -9.5t9.5 -22.5v-112q0 -77 47.5 -137.5t121.5 -78.5q13 -4 20 -15t4 -24q-3 -11 -12 -17.5t-19 -6.5zM574 260q-10 0 -19 6.5t-12 17.5q-3 13 4 24t20 14q74 19 121.5 79.5t47.5 137.5v112
q0 13 9 22.5t22.5 9.5t23 -9.5t9.5 -22.5v-112q0 -99 -61 -176.5t-157 -102.5h-8zM767.5 -84q-13.5 0 -22.5 9.5t-9 22.5v96q0 77 -47.5 137.5t-121.5 78.5q-13 4 -20 15t-3.5 24t15 20t23.5 3q96 -24 157 -101.5t61 -176.5v-96q0 -13 -9.5 -22.5t-23 -9.5zM256 -84
q-13 0 -22.5 9.5t-9.5 22.5v96q0 99 61 176.5t157 102.5q13 3 24 -4t14.5 -20t-3.5 -24t-20 -14q-74 -19 -121.5 -79.5t-47.5 -137.5v-96q0 -13 -9.5 -22.5t-22.5 -9.5zM864 619h-704q-13 0 -22.5 9.5t-9.5 22.5v128q0 13 9.5 22.5t22.5 9.5h704q13 0 22.5 -9.5t9.5 -22.5
v-128q0 -13 -9.5 -22.5t-22.5 -9.5zM192 683h640v64h-640v-64zM864 -212h-704q-13 0 -22.5 9.5t-9.5 22.5v128q0 13 9.5 22.5t22.5 9.5h704q13 0 22.5 -9.5t9.5 -22.5v-128q0 -13 -9.5 -22.5t-22.5 -9.5zM192 -148h640v64h-640v-64z" />
    <glyph glyph-name="uniE605" unicode="&#xe605;" 
d="M1024 300q0 104 -40.5 198.5t-109 163t-163 109t-199 40.5t-199 -40.5t-163 -109t-109 -163t-40.5 -198.5q0 -128 59 -239t161.5 -182t227.5 -86q22 -5 52 -5q9 0 17 1q103 1 196.5 42t161.5 109t108 162.5t40 197.5zM951 293q-2 38 -10 74q1 14 0 25q10 -45 10 -92v-7z
M74 300q0 46 9 90q14 -16 40.5 -13.5t34.5 24.5q5 -3 19 -9t20.5 -12t6.5 -16q0 -24 0.5 -39t2.5 -36t6.5 -34t12.5 -25.5t20.5 -19t29.5 -6.5q2 0 11 -5t23 -19.5t22 -34.5q3 -7 10.5 -7t22 3.5t23.5 3.5q6 0 6 -6.5t-3 -26t-3 -37.5q0 -22 26 -52t51 -50l26 -19
q-1 -46 4 -78q-34 1 -58 -8q-156 28 -259.5 149.5t-103.5 282.5zM620 -125q-4 20 -30 13q10 40 14 55t13.5 35t24.5 32q20 20 19 37.5t-15.5 29t-31.5 8.5q-9 -1 -13 3.5t-4.5 11.5t-4.5 13t-11 7q-13 1 -42.5 29t-45.5 35l-23 16t-40 16q-6 1 -15 -1t-16.5 -4.5t-14 -4
t-10.5 0t-4 5.5q0 24 -1.5 46t-3 41.5t-2.5 19.5q0 3 -1 6q0 1 2 1q9 -3 24 -3q10 0 14.5 18.5t12.5 18.5q8 1 36 -6t34 -3q2 1 8 -7q3 -6 12 -21q28 -52 39 -53q13 -1 13 53q0 5 -1.5 18t-1.5 23.5t3 17.5q9 15 19.5 34.5t17.5 31.5t13.5 24t9 18.5t2 8.5t-10 3.5
t-23.5 0.5t-26 -5q-4 -2 -3.5 -10t-6.5 -10q-24 -4 -43 -0.5t-28 14t-2 21.5q5 8 23 13t33 13.5t17 28.5q3 32 6 78q34 -5 41 21q6 29 -25 52q-21 16 -53 19q140 -2 252 -84t157 -211q-5 5 -11 5q-16 42 -47 33q-25 -7 -30 -39q-3 -18 4 -37q-147 -112 -52 -201
q26 -24 55 -72q-8 -24 12 -23q28 1 58 39q10 14 18 30q-32 -111 -116.5 -192.5t-197.5 -110.5z" />
    <glyph glyph-name="uniE606" unicode="&#xe606;" 
d="M512.5 618q-67.5 0 -115.5 -47t-48 -113t48 -113.5t115.5 -47.5t115.5 47.5t48 113.5t-48 113t-115.5 47zM512.5 369q-37.5 0 -64 26t-26.5 63t26.5 63t64 26t64 -26t26.5 -63t-26.5 -63t-64 -26zM895 434q0 102 -51 188.5t-139.5 137t-192 50.5t-192 -50.5t-139.5 -137
t-51 -188.5q0 -57 36.5 -144t96 -181.5t107 -163.5t97.5 -134q17 -23 45.5 -23t45.5 23q50 65 97.5 134t107 163.5t96 181.5t36.5 144zM518 -132l-6 -8l-6 8q-143 190 -226.5 342.5t-83.5 223.5q0 129 93 220t223.5 91t223.5 -91t93 -220q0 -71 -83.5 -223.5t-227.5 -342.5z
" />
    <glyph glyph-name="uniE607" unicode="&#xe607;" 
d="M40 809h403q9 -1 15 -5.5t9.5 -12.5t5.5 -17t2.5 -21.5t0 -22t-0.5 -23.5v-21v-223q0 -9 0.5 -29.5t0 -31.5t-2 -25.5t-7 -23t-15 -12.5t-28 -5t-44.5 0.5t-32 1.5h-214q-8 0 -30 -1t-33.5 -0.5t-27 3t-23.5 10t-10 19.5v409q8 24 31 31zM95 717v-291h291v295h-289
q-2 0 -2 -4zM582 809h403q27 -10 31 -36v-399q-6 -29 -28 -35q-12 -3 -29 -3.5t-40 1t-33 1.5h-207q-9 0 -32.5 -1.5t-41.5 -1t-29 3.5q-10 3 -16 12.5t-8 25.5t-2.5 28t0 34t0.5 30v209q0 10 -1 33.5t-0.5 35.5t3 28t10 24t20.5 10zM637 717v-291h291v295h-290q-1 0 -1 -4z
M228 632q30 6 51.5 -11.5t21.5 -45.5q1 -36 -28.5 -53.5t-59.5 -2.5q-22 12 -29 37t5 48t39 28zM770 632q49 9 66 -32q14 -35 -7 -65q-21 -27 -59 -21q-29 5 -40.5 31.5t0 53.5t40.5 33zM441 -212h-400q-26 8 -32 33v407q8 25 27 30q12 3 29 3.5t40 -1t32 -1.5h207
q9 0 32.5 1.5t41 1.5t29.5 -4q11 -3 17.5 -12t8.5 -25t2.5 -27.5t0 -34t-0.5 -30.5v-215q0 -8 0.5 -23t0.5 -24.5t-0.5 -22.5t-2.5 -21.5t-6 -16.5t-10.5 -12.5t-15.5 -5.5zM95 167v-291h291v295h-289q-2 0 -2 -4zM1016 223v-114q-2 -9 -1.5 -60.5t0.5 -62.5h-289v66
q-6 2 -43.5 1.5t-45.5 -0.5q-2 -22 -1.5 -131.5t0.5 -133.5h-53q-13 3 -21 11.5t-10.5 24t-3 28t0.5 35.5t1 32v210q0 10 -1 34t-1 41.5t4 29.5q2 6 5.5 10.5t9.5 7.5t10.5 4.5t14.5 2t15 1t17.5 0t16.5 -0.5h197v-180h90q1 16 0.5 91t1.5 89q22 1 41 0.5t31.5 -9.5
t13.5 -27zM235 83q33 4 53.5 -22.5t8.5 -59.5q-7 -19 -23 -28.5t-33.5 -8t-33 9.5t-23 26t-1.5 41q10 38 52 42zM824 -212h-98q1 9 0.5 53.5t1.5 52.5h96v-106zM1016 -106v-69q-5 -28 -32 -37h-69q0 9 -0.5 53.5t1.5 52.5h100z" />
    <glyph glyph-name="uniE608" unicode="&#xe608;" 
d="M1012 -149l-226 201q42 53 67 116q35 86 35 179.5t-35 179.5q-33 83 -94 147t-141 99q-82 37 -172.5 37t-173.5 -37q-79 -35 -140.5 -99t-94.5 -147q-35 -86 -35 -179.5t35 -179.5q33 -82 94.5 -146t140.5 -100q83 -36 173.5 -36t172.5 36q66 29 120 79l227 -202
q10 -9 24 -9q15 0 26 12q10 11 9 25.5t-12 23.5zM445 -44q-101 0 -187 52.5t-136 142.5t-50 196.5t50 196.5t136 142.5t187 52.5t187 -52.5t136 -142.5t50 -196.5t-50 -196.5t-136 -142.5t-187 -52.5z" />
    <glyph glyph-name="uniE609" unicode="&#xe609;" 
d="M737 -212l-155 434l-159 -151l26 -193l-80 -82l-132 212l-229 156l80 82l202 -40l150 167l-437 162l130 133l486 -94l157 157q63 64 121.5 77.5t95.5 -25.5q8 -8 15 -18.5t12 -31.5t1 -44.5t-23 -57.5t-54 -70l-158 -158l83 -481zM612 346l153 -430l29 29l-84 482
l185 183q39 41 52 74t-4 50q-8 9 -20 9q-38 0 -98 -61l-183 -183l-485 94l-29 -30l433 -160l-245 -273l-188 37l165 -116l80 -130l-24 176z" />
    <glyph glyph-name="uniE60A" unicode="&#xe60a;" 
d="M717 131q35 0 66 -13.5t54 -37t36.5 -54.5t13.5 -67t-13.5 -67t-36.5 -54t-54 -36.5t-66.5 -13.5t-66.5 13.5t-54.5 36.5t-37 54t-13.5 67q0 11 1 20t3 19l-172 145q-15 -8 -32.5 -11t-35.5 -3q-36 0 -67 13.5t-54.5 36t-37 53.5t-13.5 67t13.5 67t37 54.5t54.5 37
t67 13.5q40 0 77 -18l163 152q-4 14 -4 35q0 36 13.5 67t37 53.5t54.5 36.5t66.5 14t66.5 -14t54 -36.5t36.5 -53.5t13.5 -67t-13.5 -67t-36.5 -54.5t-54 -37t-66 -13.5q-25 0 -47.5 6.5t-41.5 18.5l-155 -145q6 -25 6 -49q0 -30 -9 -56l160 -135q19 11 41 17t46 6z" />
    <glyph glyph-name="uniE60B" unicode="&#xe60b;" horiz-adv-x="1025" 
d="M346 -78l-346 345l77 78l269 -269l602 602l77 -77z" />
    <glyph glyph-name="uniE60C" unicode="&#xe60c;" 
d="M317 123h540q20 0 37 12t23 31l103 446q9 17 -9 51q-6 12 -21.5 19t-29.5 7h-737l-26 112h-163q-14 0 -24 -7t-10 -19q0 -13 10.5 -23.5t23.5 -10.5h112l51 -223v-17l77 -318q-28 -13 -48 -44t-20 -67q0 -43 34 -77q-13 -14 -23.5 -36.5t-10.5 -40.5q0 -45 33 -78.5
t78 -33.5q46 0 79 29.5t33 73.5q0 9 -4.5 26t-4.5 26h369q-9 -17 -9 -52q0 -45 33 -78t78 -33t78.5 33t33.5 78t-28.5 75t-74.5 37h-9h-574q-19 0 -35 16t-16 35q17 51 51 51zM883 -39q19 0 35 -16t16 -36t-13 -31.5t-38 -11.5q-19 0 -35.5 16.5t-16.5 35.5q0 18 16 30.5
t36 12.5zM317 -134q-19 0 -35 16.5t-16 35.5t16 35t35 16v0q19 0 35.5 -16t16.5 -35q0 -24 -15.5 -38t-36.5 -14zM857 183h-514l-69 300h652zM960 629l-17 -86h-686l-17 78z" />
    <glyph glyph-name="uniE60D" unicode="&#xe60d;" 
d="M971 353h-404v404q0 22 -16 37.5t-38 15.5t-37.5 -15.5t-15.5 -37.5v-404h-404q-22 0 -37.5 -16t-15.5 -38t15.5 -37.5t37.5 -15.5h404v-404q0 -22 15.5 -37.5t37.5 -15.5t38 15.5t16 37.5v404h404q22 0 37.5 15.5t15.5 37.5t-15.5 38t-37.5 16z" />
    <glyph glyph-name="uniE60E" unicode="&#xe60e;" horiz-adv-x="1025" 
d="M973 249h-922q-21 0 -36 15t-15 36t15 36t36 15h922q21 0 36 -15t15 -36t-15 -36t-36 -15z" />
    <glyph glyph-name="uniE60F" unicode="&#xe60f;" 
d="M512 812q-161 0 -291.5 -91.5t-186.5 -237.5h79q33 71 89 127q62 62 142 95t168 33t168 -33t142 -95t95 -142t33 -168t-33 -168t-95 -142t-142 -95t-168 -33t-168 33t-142 95q-56 56 -89 127h-79q56 -146 186.5 -237.5t291.5 -91.5q104 0 198.5 41t163 109t109.5 163
t41 199t-41 198.5t-109.5 163t-163 109.5t-198.5 41zM400 145l51 -52l207 207l-207 207l-51 -52l118 -118h-518v-74h518z" />
    <glyph glyph-name="uniE610" unicode="&#xe610;" horiz-adv-x="1025" 
d="M512 812q-159 0 -292.5 -93t-188.5 -243q-55 -152 -12 -310t167.5 -261t288 -115.5t301.5 70.5t204 232.5t36 307.5q-33 157 -150 269t-274 137q-40 6 -80 6zM870 165q0 -47 -18 -63q-15 -16 -35 14q-14 29 -16 29q-4 0 -8.5 -12t-4.5 -17q-14 -35 -43 -64q6 -5 28 -16
t33.5 -23.5t4.5 -29.5q-15 -37 -103 -43q-68 -4 -124 14q-41 12 -60 12q-11 2 -31 -9.5t-24 -12.5q-47 -17 -131 -8h-5q-17 3 -27 5t-26 7t-25 14t-11 21q-4 23 10 41q9 9 20 12q2 0 13.5 2t15.5 4q4 3 -4 9q-3 2 -4 3q-8 7 -23 21q-22 25 -30 51q-1 2 -3 8t-3.5 11.5
t-2.5 5.5q-1 1 -2 -1t-2 -4.5t-2 -3.5q-16 -32 -41 -40q-4 -2 -7.5 -2t-5.5 0.5t-4 3.5t-3 5t-2 7t-1.5 7t-0.5 7q-4 38 4 64q14 58 61 108q17 17 27 25q7 6 7.5 7t0.5 11q0 4 -1 11.5t-1.5 11t0 9t2 10.5t4.5 11q2 3 9.5 13.5t9.5 15.5q0 2 6 29q2 23 18 59q29 61 80 102
q32 26 77 37t89 8.5t84 -16.5q64 -21 103 -73t48 -121q1 -4 2 -13.5t2 -13.5q2 -5 8 -13.5t7 -13.5q9 -22 2 -57q-2 -7 2.5 -16.5t13 -21.5t10.5 -15q21 -41 29 -62q-1 -10 1.5 -31.5t2.5 -29.5z" />
    <glyph glyph-name="uniE611" unicode="&#xe611;" 
d="M884 -165h-651q-58 0 -99 40.5t-41 98.5v186h93v-60q0 -72 50.5 -122t121.5 -50h401q71 0 121.5 50t50.5 122v400q0 72 -50.5 122t-121.5 50h-401q-71 0 -121.5 -50t-50.5 -122v-14h-93v140q0 58 41 98.5t99 40.5h651q58 0 99 -40.5t41 -98.5v-652q0 -57 -41 -98t-99 -41
zM465 533l280 -233l-280 -186v139h-465v140h465v140z" />
    <glyph glyph-name="uniE612" unicode="&#xe612;" 
d="M737 776q-66 0 -124.5 -31t-99.5 -85q-40 54 -99 85t-124 31q-119 0 -203.5 -92t-84.5 -222q0 -37 7 -70.5t22 -65t25 -50t30 -48.5q30 -48 81.5 -105.5t98 -101.5t100 -90t75 -63.5t35.5 -28.5q17 -13 37 -13t37 13q14 11 35.5 28.5t75 63.5t100 90t98 101.5t82.5 105.5
q19 30 29.5 48.5t25 50t21.5 65t7 70.5q0 130 -84.5 222t-202.5 92zM888 268q-29 -45 -79.5 -101t-96 -99t-98 -88t-71.5 -60t-30 -24q-11 9 -30 24t-71.5 60t-98 88t-96 99t-79.5 101q-24 37 -36.5 60.5t-24 60t-11.5 73.5q0 101 65.5 172.5t158.5 71.5q67 0 122 -40
t82 -105v0q5 -15 19.5 -15t18.5 15h1q26 65 81 105t123 40q92 0 157.5 -71.5t65.5 -172.5q0 -37 -11 -73.5t-24 -60t-37 -60.5z" />
    <glyph glyph-name="uniE613" unicode="&#xe613;" 
d="M479 522q0 15 10.5 26t25.5 11t26 -11t11 -26v-553q0 -15 -11 -25.5t-26 -10.5t-25.5 10.5t-10.5 25.5v553zM307 522q0 15 10.5 26t25.5 11t26 -11t11 -26v-553q0 -15 -11 -25.5t-26 -10.5t-25.5 10.5t-10.5 25.5v553zM650 522q0 15 11 26t26 11t25.5 -11t10.5 -26v-553
q0 -15 -10.5 -25.5t-25.5 -10.5t-26 10.5t-11 25.5v553zM953 701h-144h-52v46q0 27 -21.5 45.5t-51.5 18.5h-338q-30 0 -51 -18.5t-21 -45.5v-45h-53h-149q-15 0 -26 -11t-11 -26t11 -25.5t26 -10.5h77v-769q0 -30 21 -50.5t51 -20.5h588q30 0 51.5 20.5t21.5 50.5v768h71
q15 0 25.5 11t10.5 26t-10.5 25.5t-25.5 10.5zM346 738h338v-37h-338v37zM771 -139q-472 -2 -512 -2q-18 0 -27.5 10.5t-9.5 20.5l-1 11v692q0 19 9 27.5t18 8.5l9 -1h89h338h82h5q3 0 10.5 -1.5t13 -4.5t10 -10.5t4.5 -18.5q0 -19 0.5 -349t0.5 -347q0 -16 -10 -24.5
t-20 -10.5z" />
    <glyph glyph-name="uniE614" unicode="&#xe614;" 
d="M490 -212h-30h-256h-160v520h-42v252h199q-43 29 -61 72q-26 61 -2 115q19 42 64 55q23 7 47 7q37 0 69 -16q14 -7 37 -28q29 -27 67 -92l9 -15q26 -45 45 -62q16 -16 36 -16l2 1q21 0 37 16q18 18 45 63l12 21q45 77 88 105q36 23 81 23q20 0 40 -5q41 -11 61 -42
q29 -41 17 -101q-12 -58 -64 -97l-6 -4h198v-252h-41q-1 -97 -1 -293q1 -143 0 -215v-12h-324h-89h-78zM649 147v-294h268v455h-268v-161zM377 -147v25q0 287 -1 430h-267v-455h213h55zM584 -147v641h-143v-641h143zM958 373v122h-309v-122h154h155zM377 373v122h-310v-122
h54h256zM650 580q23 0 37 1q47 1 86 22q46 25 57 66q9 35 -5 57q-8 12 -28 16q-10 2 -20 2q-23 0 -41 -10q-28 -16 -54 -57q-9 -13 -25 -41q-23 -38 -35 -56h28zM404 580q-13 18 -35 56q-15 25 -23 37q-23 37 -45 53q-21 18 -52 18h-5q-29 -1 -41 -15q-16 -19 -9 -55
q8 -37 46 -63q46 -31 108 -31h52h4z" />
    <glyph glyph-name="uniE615" unicode="&#xe615;" 
d="M582 149q-92 0 -156 65q-9 8 -9 20.5t8.5 21.5t21 9t21.5 -9q47 -47 114 -47t114 47l219 219q47 47 47 114t-47 114t-114 47t-114 -47l-185 -185q-8 -8 -20.5 -8t-21.5 8.5t-9 21t9 21.5l184 184q65 65 157 65t156.5 -64.5t64.5 -156.5t-65 -157l-218 -218
q-65 -65 -157 -65zM221 -212q-91 0 -156 65t-65 156.5t65 156.5l218 219q65 64 157 64t157 -64q8 -9 8 -21.5t-8.5 -21.5t-21 -9t-21.5 9q-47 47 -114 47t-114 -47l-219 -219q-47 -47 -47 -114t47 -114t114 -47t114 47l185 185q9 9 21.5 9t21 -9t8.5 -21.5t-9 -21.5
l-184 -184q-65 -65 -157 -65z" />
    <glyph glyph-name="uniE616" unicode="&#xe616;" 
d="M852 127v266q0 91 -45.5 163t-124.5 112q-16 62 -63 101.5t-107 39.5q-58 0 -103 -38.5t-60 -99.5q-82 -39 -129.5 -112t-47.5 -166v-266q-47 -10 -76 -44.5t-29 -80.5v-46q0 -29 21.5 -49.5t51.5 -20.5h301q-5 -15 -5 -22q0 -32 22.5 -54t53.5 -22t53.5 22t22.5 54
q0 7 -5 22h301q30 0 51.5 20.5t21.5 49.5v46q0 46 -29 80t-76 45zM512 734q39 0 68 -32q-34 6 -68 6q-30 0 -65 -6q27 32 65 32zM881 -39l-738 -5v46q0 24 18 38.5t48 14.5h38v338q0 106 74 172.5t191 66.5t191 -66.5t74 -172.5v-296h-367q-15 0 -26.5 -11t-11.5 -26.5
t11.5 -27t26.5 -11.5h467q4 -10 4 -19v-41z" />
    <glyph glyph-name="uniE617" unicode="&#xe617;" 
d="M513 810q-139 0 -256.5 -68.5t-186 -186t-68.5 -256.5t68.5 -256.5t186 -186t256.5 -68.5t256.5 68.5t186 186t68.5 256.5t-68.5 256.5t-186 186t-256.5 68.5zM652 265h-139q-14 0 -24 10t-10 24v272q0 14 10 24t24 10t24 -10t10 -24v-238h105q14 0 24 -10t10 -24
t-10 -24t-24 -10z" />
    <glyph glyph-name="uniE618" unicode="&#xe618;" 
d="M512 812q-138 0 -256 -69t-187 -187t-69 -256t69 -256t187 -187t256 -69t256 69t187 187t69 256t-69 256t-187 187t-256 69zM512 -127q-118 0 -216 56.5t-154.5 154.5t-56.5 216t56.5 216t154.5 154.5t216 56.5t216 -56.5t154.5 -154.5t56.5 -216t-56.5 -216
t-154.5 -154.5t-216 -56.5zM725.5 513.5q-12.5 12.5 -30 12.5t-29.5 -13l-154 -153l-154 153q-12 13 -29.5 13t-30 -12.5t-12.5 -30t13 -29.5l153 -154l-153 -154q-13 -12 -13 -29.5t12.5 -30t30 -12.5t29.5 13l154 153l154 -153q12 -13 29.5 -13t30 12.5t12.5 30t-13 29.5
l-153 154l153 154q13 12 13 29.5t-12.5 30z" />
    <glyph glyph-name="uniE619" unicode="&#xe619;" 
d="M512 812q-138 0 -256 -69t-187 -187t-69 -256t69 -256t187 -187t256 -69t256 69t187 187t69 256t-69 256t-187 187t-256 69zM512 -127q-118 0 -216 56.5t-154.5 154.5t-56.5 216t56.5 216t154.5 154.5t216 56.5t216 -56.5t154.5 -154.5t56.5 -216t-56.5 -216
t-154.5 -154.5t-216 -56.5zM734 505l-307 -316l-137 145q-13 13 -30 13t-29.5 -13t-12.5 -30t12 -30l171 -170q9 -9 34.5 -9t33.5 9l342 341q12 13 12 30t-12 30q-16 11 -38.5 9.5t-38.5 -9.5z" />
    <glyph glyph-name="uniE61A" unicode="&#xe61a;" 
d="M513 -210q103 0 197.5 40.5t163 108.5t109 162.5t40.5 198.5t-40.5 198.5t-109 162.5t-163 108.5t-198 40.5t-198 -40.5t-163 -108.5t-108.5 -162.5t-40 -198.5t40 -198.5t108.5 -162.5t163 -108.5t198.5 -40.5zM513 746q90 0 173 -35t142.5 -95t95 -142.5t35.5 -173.5
t-35.5 -173.5t-95 -142.5t-142.5 -95t-173.5 -35t-173 35t-142.5 95t-95.5 142.5t-35.5 173.5t35.5 173.5t95.5 142.5t142.5 95t173.5 35zM513 636q82 0 140.5 -57.5t58.5 -139.5t-58.5 -140t-141 -58t-140.5 58t-58 140t58 139.5t141 57.5zM513 298q59 0 100.5 41
t41.5 99.5t-41.5 100t-100.5 41.5t-100.5 -41.5t-41.5 -100t41.5 -99.5t100.5 -41zM513 298q118 0 201 -83t83 -200h-57q0 94 -66.5 160t-161 66t-161 -66t-66.5 -160h-57q0 117 83.5 200t201.5 83z" />
    <glyph glyph-name="uniE61B" unicode="&#xe61b;" 
d="M512 812q-104 0 -199 -40.5t-163.5 -109.5t-109 -163.5t-40.5 -198.5t40.5 -199t109 -163.5t163.5 -109t199 -40.5t199 40.5t163.5 109t109 163.5t40.5 199t-40.5 198.5t-109 163.5t-163.5 109.5t-199 40.5zM512 -129q-116 0 -215 57.5t-156.5 156.5t-57.5 215t57.5 215
t156.5 156.5t215 57.5t215 -57.5t156.5 -156.5t57.5 -215t-57.5 -215t-156.5 -156.5t-215 -57.5zM655 581l-91 -169q-37 -68 -45 -90h-2q-24 54 -136 259h-85l159 -275h-131v-60h154v-84h-154v-61h154v-122h76v122h148v61h-148v84h148v60h-127l161 275h-81zM655 581z" />
    <glyph glyph-name="uniE61C" unicode="&#xe61c;" 
d="M46.5 440q-20.5 0 -33.5 12.5t-13 33.5v186q0 56 42 98t98 42h186q21 0 33.5 -13t12.5 -33.5t-12.5 -33.5t-33.5 -13h-186q-21 0 -34 -13t-13 -34v-186q0 -21 -13 -33.5t-33.5 -12.5zM326 -212h-186q-56 0 -98 42t-42 98v186q0 21 13 33.5t33.5 12.5t33.5 -12.5t13 -33.5
v-186q0 -21 13 -34t34 -13h186q21 0 33.5 -13t12.5 -33.5t-12.5 -33.5t-33.5 -13zM884 -212h-186q-21 0 -33.5 13t-12.5 33.5t12.5 33.5t33.5 13h186q21 0 34 13t13 34v186q0 21 13 33.5t33.5 12.5t33.5 -12.5t13 -33.5v-186q0 -56 -42 -98t-98 -42zM977.5 440
q-20.5 0 -33.5 12.5t-13 33.5v186q0 21 -13 34t-34 13h-186q-21 0 -33.5 13t-12.5 33.5t12.5 33.5t33.5 13h186q56 0 98 -42t42 -98v-186q0 -21 -13 -33.5t-33.5 -12.5zM977 253h-930q-21 0 -34 13t-13 34t13 34t34 13h930q21 0 34 -13t13 -34t-13 -34t-34 -13z" />
    <glyph glyph-name="uniE61D" unicode="&#xe61d;" 
d="M919 810h-813q-43 0 -73.5 -30.5t-30.5 -73.5v-813q0 -44 30.5 -74.5t73.5 -30.5h813q43 0 74 30.5t31 74.5v813q0 43 -31 73.5t-74 30.5zM827 520l-3 -1v-3q-17 -115 -106 -192.5t-205.5 -77.5t-205.5 77.5t-106 192.5v3l-2 1q-25 14 -25 41q0 21 14.5 35t34.5 14
t34.5 -14t14.5 -35q0 -22 -18 -37l-2 -2v-2q15 -97 89 -160t172 -63t171.5 63t88.5 160l1 2l-2 2q-18 15 -18 37q0 21 14 35t34 14v0q21 0 35 -14t14 -35q0 -27 -24 -41z" />
    <glyph glyph-name="uniE61E" unicode="&#xe61e;" 
d="M883 612h-104q-26 74 -71 121q-74 79 -193.5 79t-194.5 -79q-45 -47 -71 -121h-103q-59 0 -101.5 -42t-42.5 -101v-359q0 -15 10.5 -25t25.5 -10t25 10t10 25v359q0 30 21.5 51t51.5 21h84q-11 -51 -12 -105q-24 -18 -24 -48q0 -25 17 -42.5t42 -17.5t42 17.5t17 42.5
q0 29 -23 47q1 37 7 74q3 16 7 32h422q11 -50 13 -105q-24 -18 -24 -48q0 -25 17.5 -42.5t42 -17.5t42 17.5t17.5 42.5q0 29 -23 47q-2 54 -12 106h85q29 0 49 -21t20 -51v-540q0 -29 -20 -49.5t-49 -20.5h-737q-30 0 -50.5 21t-20.5 50q0 15 -10.5 25t-25.5 10t-25.5 -10.5
t-10.5 -24.5q0 -59 42 -100.5t101 -41.5h737q59 0 100 41t41 100v540q0 59 -41 101t-100 42zM326 612q19 43 46 72q54 57 142.5 57t142.5 -57q27 -29 46 -72h-377z" />
    <glyph glyph-name="uniE61F" unicode="&#xe61f;" 
d="M896 253q-53 0 -90.5 36.5t-37.5 88.5q0 -52 -37.5 -88.5t-90.5 -36.5t-90.5 36.5t-37.5 88.5q0 -52 -37.5 -88.5t-90.5 -36.5t-90.5 36.5t-37.5 88.5q0 -52 -37.5 -88.5t-90.5 -36.5t-90 36.5t-37 88.5l87 229h845l90 -229q1 -52 -36.5 -88.5t-90.5 -36.5v0v0zM932 608
l4 -1h-3l-1 1v0zM877 673h-730q-18 0 -31 12t-13 28.5t13 28t31 11.5h730q19 0 31.5 -11.5t12.5 -28t-12.5 -28.5t-31.5 -12v0v0zM161 176v-263h702v263h14h59v-276q0 -18 -18.5 -35.5t-37.5 -17.5h-735q-20 0 -38.5 17.5t-18.5 35.5v276h73v0z" />
    <glyph glyph-name="uniE620" unicode="&#xe620;" 
d="M213.5 385q-19.5 0 -31 12t-11.5 31q0 125 87 212t211 87q96 0 175 -58t111 -151q4 -18 -4 -33.5t-26 -18.5q-15 -6 -32 2t-23 24q-19 67 -74.5 108t-126.5 41q-89 0 -151 -61.5t-62 -151.5q0 -19 -11.5 -31t-31 -12zM768 44q-19 0 -31 11.5t-12 31t12 31t31 11.5
q70 0 120.5 50.5t50.5 120.5t-50.5 120.5t-120.5 50.5q-30 0 -43 -5q-16 -3 -32 6t-19 24q-3 17 5.5 32.5t24.5 18.5q43 9 64 9q106 0 181 -75t75 -181t-75 -181t-181 -75zM341 44h-128q-19 0 -30.5 11.5t-11.5 31t11.5 31t30.5 11.5h128q20 0 31.5 -11.5t11.5 -31
t-11.5 -31t-31.5 -11.5zM768 44h-85q-20 0 -31.5 11.5t-11.5 31t11.5 31t31.5 11.5h85q19 0 31 -11.5t12 -31t-12 -31t-31 -11.5zM213 44q-89 0 -151 62t-62 151.5t62 151.5t151 62q20 0 31.5 -12t11.5 -31t-11.5 -31t-31.5 -12q-54 0 -91 -36.5t-37 -91t37 -91.5t91 -37
q20 0 31.5 -11.5t11.5 -31t-11.5 -31t-31.5 -11.5zM512 -127q-19 0 -31 12t-12 31v427q0 19 12 30.5t31 11.5t31 -11.5t12 -30.5v-427q0 -19 -12 -31t-31 -12zM384 172q-17 0 -30 13t-13 30t13 30l128 128q13 12 30 12t30 -12.5t13 -29.5t-13 -30l-128 -128q-13 -13 -30 -13
zM640 172q-17 0 -30 13l-128 128q-13 13 -13 30t13 29.5t30 12.5t30 -12l128 -128q13 -13 13 -30t-13 -30t-30 -13z" />
    <glyph glyph-name="uniE621" unicode="&#xe621;" 
d="M511.5 450q-62.5 0 -106.5 -44.5t-44 -107t44 -106.5t106.5 -44t106.5 44t44 106.5t-44 107t-106.5 44.5zM511.5 208q-37.5 0 -64 26.5t-26.5 64t26.5 64t64 26.5t64 -26.5t26.5 -64t-26.5 -64t-64 -26.5zM994 389l-60 1l-61 120l46 45q1 2 2.5 4.5t2.5 11.5t-2.5 20
t-15.5 29.5t-33 39.5t-39.5 33.5t-30 15.5t-20 3t-11.5 -3l-4 -2l-46 -46l-120 60v61q0 1 -0.5 3t-5.5 7.5t-13.5 9t-27 7t-43.5 3.5t-43.5 -3t-27 -7.5t-13.5 -9t-6 -7.5l-1 -3v-60l-120 -61l-46 46q-1 1 -4 2.5t-12 2.5t-20 -2.5t-29.5 -15.5t-39 -32.5t-33 -39t-15.5 -30
t-2.5 -20.5t2.5 -12.5t3 -3.5l45 -46l-60 -119h-60q-1 0 -3 -1t-7 -6t-9 -13.5t-7.5 -27t-3.5 -44t3 -44.5t7.5 -27.5t9 -13t7.5 -5.5t3 0h60l61 -90l-45 -75q-1 -1 -2.5 -3.5t-2.5 -12.5t2 -21t15 -29.5t32.5 -39.5t39 -33t30 -14.5t20.5 -2t13 2.5l3 3l44 44l121 -61
l1 -59q0 -1 0.5 -3t5 -7.5t13 -9t27.5 -7t44 -3.5t43.5 3t27 7.5t13.5 9t6 7.5v3v59l90 61l76 -45q1 -1 3.5 -2.5t12 -2.5t20.5 2.5t29.5 15.5t39.5 33t33 39.5t15.5 29.5t2.5 20.5t-3 12t-3 3.5l-45 74l61 92l60 -1q1 0 3 0.5t7.5 5.5t9 13.5t7 27t3.5 43.5t-3 43.5
t-7.5 27t-9 13.5t-7.5 6h-3zM903 270l-105 -167l61 -89l-61 -62l-91 62l-165 -106v-60h-60v60l-196 105l-59 -59l-62 59l61 90l-106 167h-60v60h59l107 195l-61 61l60 58l61 -58l196 105v61h60v-61l196 -106l60 60l59 -59l-44 -76l90 -181h61v-59h-61z" />
    <glyph glyph-name="uniE622" unicode="&#xe622;" 
d="M512 -212q-104 0 -199 40.5t-163.5 109t-109 163.5t-40.5 199t40.5 199t109 163.5t163.5 109t199 40.5t199 -40.5t163.5 -109t109 -163.5t40.5 -199t-40.5 -199t-109 -163.5t-163.5 -109t-199 -40.5zM512 747q-91 0 -173.5 -35.5t-142.5 -95.5t-95.5 -142.5t-35.5 -173.5
t35.5 -173.5t95.5 -142.5t142.5 -95.5t173.5 -35.5t173.5 35.5t142.5 95.5t95.5 142.5t35.5 173.5t-35.5 173.5t-95.5 142.5t-142.5 95.5t-173.5 35.5zM482 267l-1 351h63v-319l198 -166l-39 -55z" />
    <glyph glyph-name="uniE623" unicode="&#xe623;" horiz-adv-x="1025" 
d="M1024 414l-353 52l-159 320l-158 -320l-354 -52l256 -249l-60 -353l316 167l317 -167l-61 353zM512 58l-223 -118l43 249l-181 176l250 37l111 226l112 -226l250 -37l-181 -176l43 -249z" />
    <glyph glyph-name="uniE624" unicode="&#xe624;" horiz-adv-x="1026" 
d="M392 438h-241q-6 0 -10 -4t-4 -10t4 -10t10 -4h241q6 0 10 4t4 10t-4 10t-10 4zM392 321h-241q-6 0 -10 -4t-4 -10t4 -10.5t10 -4.5h241q6 0 10 4.5t4 10.5t-4 10t-10 4zM392 204h-241q-6 0 -10 -4.5t-4 -10.5t4 -10t10 -4h241q6 0 10 4t4 10t-4 10.5t-10 4.5zM618 424
q0 -6 4.5 -10t10.5 -4h240q6 0 10.5 4t4.5 10t-4.5 10t-10.5 4h-240q-6 0 -10.5 -4t-4.5 -10zM873 321h-240q-6 0 -10.5 -4t-4.5 -10t4.5 -10.5t10.5 -4.5h240q6 0 10.5 4.5t4.5 10.5t-4.5 10t-10.5 4zM873 204h-240q-6 0 -10.5 -4.5t-4.5 -10.5t4.5 -10t10.5 -4h240
q6 0 10.5 4t4.5 10t-4.5 10.5t-10.5 4.5zM751 680q-167 0 -238 -49q-72 49 -239 49q-50 0 -96.5 -6t-87.5 -18t-65.5 -33t-24.5 -49v-623q0 -16 12.5 -27t29.5 -8q107 19 232.5 19t232.5 -19h1h2h2h1h5h1q107 19 232.5 19t232.5 -19h6q13 0 23 8q12 11 12 27v623
q0 28 -24.5 49t-65.5 33t-87 18t-97 6zM71 -7v577q14 13 69 25.5t134 12.5t134.5 -12.5t68.5 -25.5v-577q-96 13 -202.5 13t-203.5 -13zM954 -7q-203 27 -406 0v577q14 13 69 25.5t134 12.5t134.5 -12.5t68.5 -25.5v-577z" />
    <glyph glyph-name="uniE625" unicode="&#xe625;" 
d="M376 810h-295q-33 0 -56 -23t-23 -56v-295q0 -33 23 -56.5t56 -23.5h295q33 0 56.5 23.5t23.5 56.5v295q0 33 -23.5 56t-56.5 23zM399 473q0 -25 -17.5 -42.5t-42.5 -17.5h-221q-25 0 -42.5 17.5t-17.5 42.5v221q0 25 17.5 42.5t42.5 17.5h221q25 0 42.5 -17.5
t17.5 -42.5v-221zM944 810h-295q-33 0 -56 -23t-23 -56v-295q0 -33 23 -56.5t56 -23.5h295q33 0 56.5 23.5t23.5 56.5v295q0 33 -23.5 56t-56.5 23zM967 473q0 -25 -17.5 -42.5t-42.5 -17.5h-221q-25 0 -42.5 17.5t-17.5 42.5v221q0 25 17.5 42.5t42.5 17.5h221
q25 0 42.5 -17.5t17.5 -42.5v-221zM944 242h-295q-33 0 -56 -23t-23 -56v-295q0 -33 23 -56.5t56 -23.5h295q33 0 56.5 23.5t23.5 56.5v295q0 33 -23.5 56t-56.5 23zM967 -95q0 -25 -17.5 -42.5t-42.5 -17.5h-221q-25 0 -42.5 17.5t-17.5 42.5v221q0 25 17.5 42.5t42.5 17.5
h221q25 0 42.5 -17.5t17.5 -42.5v-221zM377 242h-297q-32 0 -55 -23t-23 -55v-297q0 -33 23 -56t55 -23h297q33 0 56 23t23 56v297q0 32 -23 55t-56 23zM399 -95q0 -25 -17.5 -42.5t-42.5 -17.5h-221q-25 0 -42.5 17.5t-17.5 42.5v221q0 25 17.5 42.5t42.5 17.5h221
q25 0 42.5 -17.5t17.5 -42.5v-221z" />
    <glyph glyph-name="uniE626" unicode="&#xe626;" 
d="M909 606l-327 186q-32 18 -70 18t-71 -18l-326 -186q-34 -19 -53 -52t-19 -71v-368q0 -38 19 -71t53 -52l326 -185q33 -19 71 -19t70 19l327 185q33 19 52.5 52t19.5 71v368q0 38 -19.5 71t-52.5 52zM548 -134q-17 -9 -36.5 -9t-36.5 9l-240 136q26 14 46 16q16 1 64 13
q16 4 27 7q58 13 77 30q13 10 12 26q0 35 -22 64q-3 6 -9 10q-35 27 -55 70.5t-20 94.5q0 80 46 136.5t111 56.5t111 -56.5t46 -136.5q0 -50 -19.5 -93.5t-54.5 -70.5q-4 -3 -6 -6q-25 -31 -26 -67q0 -16 12 -26q17 -14 77 -28q54 -13 90 -16q27 -2 56 -18zM912 115
q0 -42 -38 -64l-10 -5v1q-52 42 -116 47q-30 3 -80 15q-16 3 -29 7l1 1q47 37 72.5 94t25.5 122q0 108 -66 185t-159.5 77t-160 -77t-66.5 -185q0 -65 26 -122t71 -93q2 -3 4 -5q-14 -5 -31 -9q-10 -2 -28 -6q-42 -11 -53 -12q-54 -4 -106 -46l-20 11q-37 22 -37 64v368
q0 43 37 64l326 185q17 10 36.5 10t36.5 -10l326 -185q38 -21 38 -64v-368z" />
    <glyph glyph-name="uniE627" unicode="&#xe627;" 
d="M887 812h-750q-12 0 -22.5 -1t-33.5 -8t-39 -20t-29 -41t-13 -67v-750q0 -39 15 -67t33 -41t41.5 -20t32.5 -8t15 -1h750q39 0 67 14.5t41 33t20 42t8 32.5t1 15v750q0 39 -13 67t-29 41t-39 20t-33.5 8t-22.5 1zM956 -75q0 -3 -0.5 -7.5t-4 -16.5t-10 -21t-20.5 -16.5
t-34 -7.5l-257 268l-140 -121l-211 195l-211 -195v672q0 20 6 33.5t13 20.5t18 10.5t17 4t15 0.5h750q9 0 15 -0.5t17.5 -4t18 -10.5t12.5 -20.5t6 -33.5v-750zM683 539q-57 0 -97 -40t-40 -96.5t40 -97t96.5 -40.5t96.5 40.5t40 97t-40 96.5t-96 40z" />
    <glyph glyph-name="uniE628" unicode="&#xe628;" 
d="M512 812q-104 0 -199 -40.5t-163.5 -109t-109 -163.5t-40.5 -199t40.5 -199t109 -163.5t163.5 -109t199 -40.5t199 40.5t163.5 109t109 163.5t40.5 199t-40.5 199t-109 163.5t-163.5 109t-199 40.5zM464 45q-66 0 -126 19.5t-99 59t-39 89.5q0 83 94 177q59 59 120 83
t87 -3q23 -22 7 -73q-4 -11 6 -10q9 1 9 3q49 20 86.5 20t53.5 -21q16 -23 0 -63q-3 -8 -0.5 -11t11.5 -5q31 -10 53.5 -31.5t22.5 -54.5q0 -65 -82 -122t-204 -57zM701 377q7 21 -8 38t-38 13q-8 -2 -15.5 2.5t-9 13t3 16t12.5 8.5q47 10 78 -24.5t17 -79.5
q-3 -8 -10.5 -12t-16 -1.5t-12 10t-1.5 16.5zM822 337q-3 -9 -11.5 -13.5t-18.5 -1.5t-14.5 12t-1.5 18q10 29 3.5 60.5t-28 55.5t-52 33.5t-60.5 3.5q-10 -2 -18.5 3.5t-10.5 15t3.5 18t15.5 10.5q43 9 85.5 -4t73 -47t39.5 -78.5t-5 -85.5zM640.5 233.5
q-5.5 51.5 -64 82.5t-137 23t-130.5 -49.5t-46.5 -93t64 -82.5t137 -23t130.5 49.5t46.5 93zM531 177q-16 -36 -56 -52.5t-79 -4.5q-37 12 -51.5 44.5t2.5 66.5q16 33 53 49t74 6q39 -10 56 -41.5t1 -67.5zM424.5 214q-12.5 5 -26 0.5t-21 -16t-4.5 -24t15 -18t26.5 -1
t22 17t4 24.5t-16 17zM464 231q-11 4 -17.5 -7t4.5 -16q12 -4 19 7q6 11 -6 16z" />
    <glyph glyph-name="uniE629" unicode="&#xe629;" 
d="M878 473l-320 320q-19 19 -45.5 19t-45.5 -19l-320 -320q-18 -18 -18 -45t18.5 -45.5t45 -18.5t45.5 19l211 210v-741q0 -27 18.5 -45.5t45 -18.5t45.5 18.5t19 45.5v741l210 -210q19 -19 45.5 -19t45.5 18.5t19 45.5t-19 45z" />
    <glyph glyph-name="uniE62A" unicode="&#xe62a;" 
d="M928 -127h-832q-40 0 -68 29t-28 70v525q0 41 28 69.5t68 28.5h160v33q0 41 28 70t68 29h320q40 0 68 -29t28 -70v-33h160q40 0 68 -28.5t28 -69.5v-525q0 -41 -28 -70t-68 -29zM935 469q0 19 -13.5 32.5t-31.5 13.5h-197v76q0 19 -13 32.5t-32 13.5h-272
q-19 0 -32 -13.5t-13 -32.5v-76h-197q-18 0 -31.5 -13.5t-13.5 -32.5v-460q0 -19 13.5 -32.5t31.5 -13.5h756q18 0 31.5 13.5t13.5 32.5v460zM512 37q-93 0 -158.5 67.5t-65.5 162.5t65.5 162.5t158.5 67.5t158.5 -67.5t65.5 -162.5t-65.5 -162.5t-158.5 -67.5zM512 431
q-66 0 -113 -48t-47 -116t47 -116t113 -48t113 48t47 116t-47 116t-113 48zM512 333q-27 0 -45.5 -19.5t-18.5 -46.5h-32q0 41 28 70t68 29v-33z" />
    <glyph glyph-name="uniE62B" unicode="&#xe62b;" horiz-adv-x="1025" 
d="M468 569l-447 -448q-19 -19 -19 -45t18.5 -44.5t45 -18.5t44.5 18l403 403l403 -403q18 -18 44.5 -18t45 18.5t18.5 44.5t-19 45l-447 448q-19 18 -45 18t-45 -18z" />
    <glyph glyph-name="uniE62C" unicode="&#xe62c;" 
d="M467 31l-447 448q-19 19 -19 45t18.5 44.5t45 18.5t44.5 -18l403 -403l403 403q18 18 44.5 18t45 -18.5t18.5 -44.5t-19 -45l-447 -448q-19 -18 -45 -18t-45 18z" />
    <glyph glyph-name="uniE62D" unicode="&#xe62d;" 
d="M513 810q-104 0 -199 -35t-163.5 -93.5t-109 -139.5t-40.5 -170q0 -100 52 -189.5t146 -153.5q12 -8 27 -5.5t23.5 15t5.5 27.5t-15 24q-79 53 -122.5 127t-43.5 155q0 99 59 183t160 133t219.5 49t219.5 -49t160 -133t59 -183t-59 -183t-160 -133t-219 -49q-2 0 -4 -0.5
t-3 -0.5q-13 2 -24.5 -4.5t-16.5 -18.5q-10 -29 -107 -84q20 66 4 90q-12 18 -34 18q-15 0 -26 -10.5t-11 -26.5q0 -9 5 -18q-7 -37 -38 -114q-9 -22 9 -40q10 -10 25 -10q8 0 15 3q32 15 65.5 32t81 49.5t67.5 62.5q137 2 253 60.5t183 159t67 217.5q0 89 -40.5 170
t-109 139.5t-163.5 93.5t-198 35zM317 441q-28 0 -47 -19.5t-19 -46.5t19 -46t46.5 -19t46.5 19t19 46t-19 46.5t-46 19.5zM514 441q-28 0 -47 -19.5t-19 -46.5t19 -46t46.5 -19t46.5 19t19 46t-19 46.5t-46 19.5zM711 441q-28 0 -47 -19.5t-19 -46.5t19 -46t46.5 -19
t46.5 19t19 46t-19 46.5t-46 19.5z" />
    <glyph glyph-name="uniE62E" unicode="&#xe62e;" horiz-adv-x="1027" 
d="M1026 495v47l-2 3q-10 31 -32.5 49t-49.5 18h-860q-30 0 -53 -16q-29 -20 -29 -52v-481q0 -31 25.5 -51t56.5 -20h860q28 0 49.5 17t32.5 40l2 5v435v6zM527 316q-15 -9 -30 0l-88 58l-291 191h788zM47 63v481q0 5 4 9l307 -201l-311 -290v1zM398 325l74 -48
q18 -12 40 -12t40 12l79 52l308 -290h-848zM672 355l297 195q6 -7 10 -16v-39v-5v-1v-424z" />
    <glyph glyph-name="uniE62F" unicode="&#xe62f;" 
d="M512 812q-104 0 -199 -40.5t-163.5 -109t-109 -163.5t-40.5 -199t40.5 -199t109 -163.5t163.5 -109t199 -40.5t199 40.5t163.5 109t109 163.5t40.5 199t-40.5 199t-109 163.5t-163.5 109t-199 40.5zM512 -148q-91 0 -174 35.5t-143 95.5t-95.5 143t-35.5 174t35.5 174
t95.5 143t143 95.5t174 35.5t174 -35.5t143 -95.5t95.5 -143t35.5 -174t-35.5 -174t-95.5 -143t-143 -95.5t-174 -35.5zM559 369h-94q-9 0 -16 -7t-7 -17v-49v-17v-217q0 -9 7 -16t16 -7h94q9 0 16 7t7 16v217v17v49q0 10 -7 17t-16 7zM512 487zM438 487.5q0 30.5 21.5 52
t52.5 21.5t52.5 -21.5t21.5 -52t-21.5 -52t-52.5 -21.5t-52.5 21.5t-21.5 52z" />
    <glyph glyph-name="uniE630" unicode="&#xe630;" 
d="M449 -21h-53q-115 19 -191.5 108.5t-76.5 207.5q0 77 37 148l39 -55q22 -29 58 -23t45 42l32 112l43 155q8 28 -9.5 51t-46.5 23h-152h-116q-35 0 -51.5 -32t4.5 -61l73 -100q-84 -116 -84 -260q0 -167 108.5 -292t270.5 -151q8 -1 17 1v-1h53q26 0 44.5 18.5t18.5 44.5
v1q0 26 -18.5 44.5t-44.5 18.5zM1013 -55l-73 100q84 116 84 260q0 167 -108.5 292t-270.5 151q-8 1 -17 -1v1h-53q-26 0 -44.5 -18.5t-18.5 -44.5v-1q0 -26 18.5 -44.5t44.5 -18.5h53q115 -19 191.5 -108.5t76.5 -207.5q0 -77 -37 -148l-39 55q-22 29 -58 23t-45 -42
l-32 -112l-43 -155q-8 -28 9.5 -51t46.5 -23h152h116q35 0 51.5 32t-4.5 61z" />
    <glyph glyph-name="uniE631" unicode="&#xe631;" 
d="M3 277q0 78 48 141.5t121 84.5q41 103 134.5 168t208.5 65t206.5 -64.5t132.5 -168.5q76 -22 123 -84.5t47 -141.5q0 -98 -69.5 -167.5t-169.5 -69.5q-19 0 -33.5 14.5t-14.5 33.5q0 21 14 34t34 13q60 0 102 41.5t42 100.5q0 66 -50 106l-8 8q-3 3 -11 8q-1 2 -5.5 3.5
t-5.5 2.5h-3q-1 2 -4 3t-4 2h-3q-1 0 -4 1.5t-5 1.5q-5 0 -5 3h-8q-6 0 -9 3h-5h-14h-3q-6 21 -6 25q-2 0 -2 5q-2 3 -3.5 9t-2.5 8q0 1 -1.5 3t-1.5 3q-2 6 -8 17v5q-2 3 -6 8.5t-5 8.5q-36 59 -97.5 95t-133.5 36q-74 0 -136 -36t-98 -96l-8 -16q0 -1 -1 -2t-1 -2l-1 -1
l-9 -17v-6l-8 -17v-5q-6 -18 -6 -25h-5h-14h-6q-2 -3 -8 -3h-5q-3 -3 -4 -3h-2t-4.5 -1.5t-3.5 -1.5h-6q-1 -1 -4 -2t-4 -3h-3q-1 -1 -4 -2.5t-4 -3.5h-3l-9 -8q-2 -1 -11 -8q-47 -38 -47 -106q0 -59 41.5 -100.5t100.5 -41.5q22 0 36 -13t14 -34q0 -20 -14.5 -34t-35.5 -14
q-98 0 -168.5 69.5t-70.5 167.5zM323 118q0 15 11 34l145 158q14 14 36 14q18 0 36 -14l142 -158q14 -14 14 -34q0 -19 -14.5 -33t-35.5 -14q-17 0 -34 17l-61 66v-239q0 -21 -13.5 -34t-33.5 -13q-21 0 -34 13t-13 34v239l-61 -66q-17 -17 -37 -17q-19 0 -33 14t-14 33z
" />
    <glyph glyph-name="uniE632" unicode="&#xe632;" 
d="M905 776h-519q-42 0 -71.5 -29.5t-29.5 -71.5v-96l-211 -106q-3 -1 -6 -3q-68 -48 -68 -135v-359q0 -20 14 -34t33.5 -14t33.5 14t14 34v359q0 37 24 55l235 118q2 1 6 4q5 3 7 6q2 2 6 8l3 7q2 3 3 11q1 3 1 6v125q0 6 6 6h519q10 0 17 -7t7 -17v-679q0 -20 14 -34
t33.5 -14t33.5 14t14 34v679q0 49 -35 84t-84 35zM724 138q-53 0 -94.5 -31.5t-56.5 -81.5h-121q-15 51 -56.5 82t-94.5 31q-66 0 -112 -46.5t-46 -111.5t46 -111.5t112 -46.5q51 0 92 30t57 78h124q16 -48 57.5 -78t92.5 -30q65 0 111.5 46.5t46.5 111.5t-46.5 111.5
t-111.5 46.5zM724 -83q-26 0 -45 18.5t-19 44.5t19 44.5t45 18.5t44.5 -18.5t18.5 -44.5t-18.5 -44.5t-44.5 -18.5zM301 -83q-26 0 -44.5 18.5t-18.5 44.5t18.5 44.5t44.5 18.5t44.5 -18.5t18.5 -44.5t-18.5 -44.5t-44.5 -18.5zM189 216h143q20 0 34 14t14 34v143
q0 19 -14 33t-33.5 14t-33.5 -14t-14 -33v-96h-96q-19 0 -33 -14t-14 -33.5t14 -33.5t33 -14z" />
    <glyph glyph-name="uniE633" unicode="&#xe633;" horiz-adv-x="1025" 
d="M1025 313q0 -7 -2 -14l-92 -407q-2 -7 -6 -14q-16 -31 -45 -49q-31 -20 -68 -20h-592h-6h-7l-158 1q-3 -1 -6 -1q-18 0 -30.5 12.5t-12.5 30.5v512q0 18 12.5 30.5t30.5 12.5q2 0 5 -1l142 1v1q98 7 166.5 78t70.5 170v11q0 51 36 87.5t88 36.5q44 0 77.5 -27t43.5 -69
q11 -49 11 -98q0 -76 -25 -147h239q2 0 6 -1q31 -1 58.5 -16.5t44.5 -43.5q22 -35 19 -76zM85 -105h86v426h-85zM934 345q-13 20 -37 19v0h-302q-17 0 -29.5 12.5t-12.5 30.5q0 10 4 19q26 49 36 103h1q0 3 1 8t2.5 22.5t1.5 37.5q0 15 -1.5 32t-3.5 26l-1 9v0v1
q0 17 -12 28.5t-28.5 11.5t-28 -11.5t-11.5 -28.5v-2h-1q1 -34 -6 -68q-3 -19 -10 -39q-27 -83 -91 -143t-148 -81l-1 -437h556q3 0 6 -1q9 1 16 6q11 7 15 18h1l88 392q6 19 -4 35z" />
    <glyph glyph-name="uniE634" unicode="&#xe634;" 
d="M588 140q-76 -61 -104 -77q-32 -19 -67 -30q-30 -10 -53 -12q-23 -3 -38 -3q-2 -1 -4 -1h-12q-39 0 -73.5 9.5t-60.5 27.5t-41 45.5t-15 64.5q0 32 16.5 57.5t43 43.5t58.5 27.5t64 7.5q31 -1 60.5 -7t56.5 -15t51 -19t46 -19q8 -4 18 -7q9 -4 19 -7q21 26 35 51.5
t23.5 46.5t14.5 35.5t6 20.5h-311v34h147v80h-204v34h204v65q0 6 7.5 10t16.5 6q11 2 24 2h55v-83h211v-34h-211v-80h167l1 1v-1h-1q-5 -32 -17 -67q-10 -31 -29.5 -70.5t-51.5 -80.5q18 -9 50 -23t121.5 -43t166.5 -41q45 100 45 210q0 104 -40.5 198.5t-109 163t-163 109
t-198.5 40.5t-198.5 -40.5t-163 -109t-109 -163t-40.5 -198.5t40.5 -198.5t109 -163t163 -109t198.5 -40.5q129 0 240 60t181 162q-65 14 -141.5 43.5t-203.5 86.5v0zM186 163q0 -25 10.5 -43.5t24 -28t32 -15t28.5 -7t18 -1.5q59 -2 123 36q7 4 15 10l16 12q8 6 15.5 12.5
t14.5 13t12 11t9 7.5l4 4q3 2 5 5q-20 11 -40 21q-92 44 -142 49q-40 5 -70.5 -4t-45 -25t-21.5 -30.5t-8 -26.5v0z" />
    <glyph glyph-name="uniE635" unicode="&#xe635;" 
d="M558 -170q-3 -28 -25.5 -38t-44 1.5t-23.5 36.5v642l-283 -274q-16 -14 -34 -12.5t-28 14t-13 29t10 32.5q129 125 357 345q16 17 37.5 17.5t37.5 -17.5q354 -342 358 -347q12 -14 10 -31t-13 -27.5t-26.5 -14.5t-32.5 9q-3 3 -33.5 32.5t-72.5 69.5t-83 80t-70 67
l-28 28v-642zM116 809h787v-90h-787v90z" />
    <glyph glyph-name="uniE636" unicode="&#xe636;" 
d="M39 339l457 465q8 8 19.5 8t19.5 -8q8 -9 8 -20.5t-8 -19.5l-456 -465q-8 -9 -19.5 -9t-20.5 9q-8 8 -8 20t8 20zM952 299l-456 465q-8 8 -8 19.5t8 20.5q8 8 19.5 8t19.5 -8l456 -465q8 -8 8 -20t-8 -20q-8 -9 -19.5 -9t-19.5 9zM59 347h102q12 0 20 -8.5t8 -19.5
q0 -12 -8 -20.5t-20 -8.5h-102q-11 0 -19.5 8.5t-8.5 20.5q0 11 8.5 19.5t19.5 8.5zM869 347h103q11 0 19 -8.5t8 -19.5q0 -12 -8 -20.5t-19 -8.5h-103q-11 0 -19 8.5t-8 20.5q0 11 8 19.5t19 8.5zM134 -184v503q0 11 8 19.5t19 8.5q12 0 20 -8.5t8 -19.5v-503
q0 -11 -8 -19.5t-20 -8.5q-11 0 -19 8.5t-8 19.5zM161 -155h494q11 0 19 -8.5t8 -20.5q0 -11 -8 -19.5t-19 -8.5h-494q-11 0 -19 8.5t-8 19.5q0 12 8 20.5t19 8.5zM842 -184v503q0 11 8 19.5t19 8.5q12 0 20 -8.5t8 -19.5v-503q0 -11 -8 -19.5t-20 -8.5q-11 0 -19 8.5
t-8 19.5zM627 -184v503q0 11 8 19.5t20 8.5q11 0 19 -8.5t8 -19.5v-503q0 -11 -8 -19.5t-19 -8.5q-12 0 -20 8.5t-8 19.5zM375 347h280q11 0 19 -8.5t8 -19.5q0 -12 -8 -20.5t-19 -8.5h-280q-11 0 -19.5 8.5t-8.5 20.5q0 11 8.5 19.5t19.5 8.5zM403 319v-285q0 -12 -8 -20
t-20 -8q-11 0 -19.5 8t-8.5 20v285q0 11 8.5 19.5t19.5 8.5q12 0 20 -8.5t8 -19.5z" />
    <glyph glyph-name="uniE637" unicode="&#xe637;" 
d="M790 -173q-48 0 -90.5 18t-74 50t-50 74.5t-18.5 90t18.5 90t50 73.5t74 49.5t90 18.5t90 -18.5t74 -49.5t49.5 -73.5t18 -90t-18 -90t-49.5 -74.5t-74 -50t-89.5 -18zM904 97h-84v78q0 16 -10 27.5t-26 11.5t-25 -11.5t-9 -27.5v-78h-74q-15 0 -26.5 -11.5t-11.5 -27.5
t11.5 -23.5t26.5 -7.5h74v-81q0 -16 9 -27t25 -11t26 11t10 27v81h84v-3q16 0 27.5 9t11.5 25t-11.5 27.5t-27.5 11.5zM624 379q-4 -18 -9 -33q-4 -12 -11 -25t-15 -20q-10 -8 -14 -17t-7 -18.5t-6 -20t-11 -20.5q-26 -34 -39 -66t-18.5 -61t-3 -58t9.5 -56q4 -21 13 -43
t26.5 -45t45 -45.5t68.5 -42.5q-28 -6 -64 -10q-30 -4 -75 -7q-45 -2 -103 -2q-29 0 -68 2t-80.5 5.5t-82 8t-73.5 9.5t-56.5 11t-29.5 10q-10 9 -15.5 50.5t3.5 108.5q6 37 30 57t57 31t68.5 21t63.5 27q21 13 32.5 25t16 24.5t4.5 26t-1 29.5q-2 24 -16.5 37.5t-30.5 27.5
q-9 7 -15.5 20.5t-11.5 25.5q-6 15 -9 33q-8 2 -15 7q-5 4 -12 13.5t-13 27.5q-5 17 -3.5 31.5t6.5 24.5q4 13 12 22q0 38 5 77q4 33 13.5 70.5t31.5 66.5q20 28 43.5 46.5t48.5 28.5t50 14t47 4q30 0 57 -7t50.5 -18t41.5 -25.5t29 -28.5q26 -33 38 -73t18 -75q5 -40 4 -81
q7 -6 12 -14q4 -7 6.5 -18t-0.5 -28q-2 -22 -8.5 -34.5t-14.5 -19.5q-9 -8 -20 -11z" />
    <glyph glyph-name="uniE638" unicode="&#xe638;" 
d="M1024 300q0 -104 -40.5 -199t-109 -163.5t-163.5 -109t-199 -40.5t-199 40.5t-163.5 109t-109 163.5t-40.5 199t40.5 199t109 163.5t163.5 109t199 40.5t199 -40.5t163.5 -109t109 -163.5t40.5 -199zM797 434l-49 48l-297 -297l-174 174l-48 -49l222 -222z" />
    <glyph glyph-name="uniE639" unicode="&#xe639;" horiz-adv-x="1025" 
d="M1025 451q0 128 -87.5 219t-211.5 91q-60 0 -115.5 -25t-97.5 -70q-42 45 -97.5 70t-115.5 25q-123 0 -210.5 -91t-87.5 -219q0 -6 1 -15v-4q0 -45 21 -98q1 -3 2 -4q24 -58 76.5 -126t104 -119.5t117 -108t94 -78.5t58.5 -44q4 -3 5 -4q14 -11 31.5 -11t31.5 11q1 1 5 4
q26 19 50.5 38.5t83.5 68.5t106 94.5t100 107t84 115.5q4 6 11 19q2 5 3 5v1l1 2q11 21 18 39q18 48 18 88v6q1 7 1 13z" />
    <glyph glyph-name="uniE63A" unicode="&#xe63a;" 
d="M1024 721l-91 90l-421 -421l-421 421l-91 -90l422 -421l-422 -422l91 -90l421 421l421 -421l91 90l-422 422z" />
    <glyph glyph-name="uniE63B" unicode="&#xe63b;" 
d="M551 812v-1024h-78v1024h78zM747 671v-317h-451v317h451zM856 242v-317h-688v317h688zM856 242z" />
    <glyph glyph-name="uniE63C" unicode="&#xe63c;" 
d="M35 352h954v-73h-954v73zM166 534h296v-420h-296v420zM566 636h296v-641h-296v641z" />
    <glyph glyph-name="uniE63D" unicode="&#xe63d;" 
d="M64 670h896v-72h-896v72zM115 546h360v-421h-360v421zM552 548h359v-642h-359v642z" />
    <glyph glyph-name="uniE63E" unicode="&#xe63e;" 
d="M64 -21h896v-72h-896v72zM114 452h359v-420h-359v420zM551 673h359v-641h-359v641z" />
    <glyph glyph-name="uniE63F" unicode="&#xe63f;" 
d="M819 794h51v-820h-51v820zM358 691h410v-256h-410v256zM154 384h614v-307h-614v307z" />
    <glyph glyph-name="uniE640" unicode="&#xe640;" 
d="M706 589h-52v205h52v-205zM706 -26h-52v205h52v-205zM808 179v410h-256v-410h256zM270 794h52v-103h-52v103zM270 77h52v-103h-52v103zM398 640v-512h-204v512h204zM450 691h-308v-614h308v614z" />
    <glyph glyph-name="uniE641" unicode="&#xe641;" 
d="M717 128v51h205v-51h-205zM102 128v51h205v-51h-205zM307 26h410v256h-410v-256zM102 563h103v-51h-103v51zM819 563h103v-51h-103v51zM768 640v-205h-512v205h512zM819 691h-614v-307h614v307z" />
    <glyph glyph-name="uniE642" unicode="&#xe642;" 
d="M95 832h64v-896h-64v896zM226 766h448v-320h-448v320zM225 318h704v-320h-704v320z" />
    <glyph glyph-name="uniE643" unicode="&#xe643;" 
d="M707 -51h-350v30q23 8 47 14q23 6 51 11v611h-133l-55 -147h-27q-3 20 -5 47q-2 23 -4 53q-1 25 -2 54q-1 26 -1 46h608q0 -19 -1 -45.5t-2 -53.5q-1 -4 -2 -23.5t-2 -29.5q-1 -27 -4 -48h-28l-55 147h-132v-611q30 -6 51 -11q24 -5 46 -14v-30zM707 -51z" />
    <glyph glyph-name="uniE644" unicode="&#xe644;" 
d="M599 714h393v131h-960v-131h393v-829h174v829z" />
    <glyph glyph-name="uniE645" unicode="&#xe645;" 
d="M832 558v231q0 18 -12.5 30.5t-30.5 12.5h-682q-18 0 -30.5 -12.5t-12.5 -30.5v-682q0 -18 12.5 -30.5t30.5 -12.5h251q48 -74 126 -117t169 -43q95 0 176 47t128.5 128.5t47.5 176.5t-47 175t-126 127zM128 128v640h640v-180q-57 20 -115 20q-96 0 -177 -47t-128 -128.5
t-47 -176.5q0 -66 24 -128h-197zM653 -32q-119 0 -203.5 84.5t-84.5 203.5t84.5 203.5t203.5 84.5t203.5 -84.5t84.5 -203.5t-84.5 -203.5t-203.5 -84.5z" />
    <glyph glyph-name="uniE646" unicode="&#xe646;" 
d="M742 604h-317q-59 0 -101 -41.5t-42 -100.5v-318q0 -59 42 -101.5t101 -42.5h318q59 0 101 42.5t42 101.5v317q0 60 -42 101.5t-102 41.5zM496 761h-256q-47 0 -81 -34t-34 -81v-255q0 -48 34 -82t81 -34h256q47 0 81 34t34 82v255q0 47 -34 81t-81 34zM550 391
q0 -24 -15.5 -40t-38.5 -16h-256q-23 0 -38.5 16t-15.5 40v255q0 23 15.5 39t38.5 16h256q23 0 38.5 -16t15.5 -39v-255z" />
    <glyph glyph-name="uniE647" unicode="&#xe647;" 
d="M762 616h-158v62q0 47 -34 81t-82 34h-255q-47 0 -81 -34t-34 -81v-256q0 -47 34 -81t81 -34h68v-152q0 -60 42.5 -102t101.5 -42h318q59 0 101 42t42 102v317q0 60 -42 102t-102 42zM831 155q0 -29 -20 -49t-48 -20h-318q-29 0 -49 20t-20 49v317q0 29 20 49t49 20h318
q28 0 48 -20t20 -49v-317z" />
    <glyph glyph-name="uniE648" unicode="&#xe648;" 
d="M195 178l110 212l-94 -15q-2 10 -2 14q-23 140 42 278q-73 -52 -109 -134t-25 -174l-94 -15zM960 289l-413 45q-3 1 -8 1q-12 0 -22 -8l-346 -235q-15 -14 -9 -32q5 -19 24 -23l405 -74q14 -3 25 5l355 265q16 12 12 31.5t-23 24.5zM998.5 722.5q-3.5 18.5 -21.5 23.5
l-393 51q-3 1 -8 1q-11 1 -20 -7l-322 -231q-14 -13 -9 -31q6 -18 24 -21l80 -15q120 -22 211 -41q13 -2 32 -6.5t27.5 -6.5t23 -4t17.5 0q3 1 8 3.5t12 7.5t13.5 10t17.5 13.5t19 15.5l150 113l127 95q15 11 11.5 29.5zM787 610l-167 -126l-265 56l-37 8l267 185l318 -37z
" />
    <glyph glyph-name="uniE649" unicode="&#xe649;" 
d="M994 393l-167 165l-111 -206l93 14q0 -3 1 -7.5t1 -6.5q21 -139 -44 -273q71 51 107.5 131t26.5 170zM76 499l119 -34l110 -31l186 -53q3 -1 8 -1q12 -1 22 7l149 133l58 52l125 112q14 13 9 31.5t-24 22.5l-396 77q-14 3 -24 -5l-351 -256q-16 -11 -13 -30q4 -19 22 -25
zM795 271q-5 17 -23 21l-79 15l-300 65l-222 -161l-125 -92q-15 -11 -12 -28.5t21 -22.5l390 -112q3 -1 8 -1q11 0 20 7l313 279q13 12 9 30zM446 17l-318 90l105 76l182 130l199 -47l51 -11l2 -1l36 -8z" />
    <glyph glyph-name="uniE64A" unicode="&#xe64a;" 
d="M948 857h-872q-15 0 -26 -11t-11 -26v-872q0 -15 11 -26t26 -11h872q15 0 26 11t11 26v872q0 15 -11 26t-26 11zM112 -16v94l94 -94h-94zM288 -16l-176 176v91l267 -267h-91zM462 -16l-350 350v81l431 -431h-81zM625 -16l-513 513v70l583 -583h-70zM778 -16l-666 666v81
l747 -747h-81zM912 13l-771 771h87l684 -684v-87zM912 183l-601 601h83l518 -518v-83zM912 348l-436 436h81l355 -355v-81zM912 511l-273 273h87l186 -186v-87zM912 680l-104 104h104v-104z" />
    <glyph glyph-name="uniE64B" unicode="&#xe64b;" 
d="M512 -116v-2v2zM512 641q-115 0 -212.5 -37.5t-156 -106.5t-58.5 -154q0 -65 34.5 -127t91.5 -109.5t136.5 -76.5t163.5 -29h1h1q14 111 126.5 186.5t265.5 75.5h11h9q2 7 8 17t6 20q0 64 -34.5 126.5t-91.5 109.5t-136.5 76t-164.5 29zM256 215q-35 0 -60 25t-25 60.5
t25 60.5t60 25t60 -25t25 -60.5t-25 -60.5t-60 -25zM405.5 428q-26.5 0 -45.5 19t-19 45t19 45t45.5 19t45 -19t18.5 -45t-18.5 -45t-45 -19zM616.5 473q-21.5 0 -37 15.5t-15.5 37.5t15.5 37t37 15t37 -15t15.5 -37t-15.5 -37.5t-37 -15.5zM767.5 387q-17.5 0 -30 12.5
t-12.5 30t12.5 29.5t30 12t30 -12t12.5 -29.5t-12.5 -30t-30 -12.5z" />
    <glyph glyph-name="uniE64C" unicode="&#xe64c;" 
d="M512 264q36 41 86 64.5t106 23.5q4 0 8.5 -0.5t10 -1t8.5 -1.5q37 62 37 131q0 106 -75 181t-181 75t-181 -75t-75 -181q0 -69 37 -131q25 3 27 3q56 0 106 -23.5t86 -64.5zM485 227q-61 6 -111 38.5t-81 83.5q-97 -10 -163 -82.5t-66 -170.5q0 -106 75 -181t181 -75
q56 0 106 23.5t86 64.5q-64 73 -64 168q0 69 37 131zM731 349q-31 -51 -81 -83.5t-111 -38.5q37 -62 37 -131q0 -95 -64 -168q36 -41 86 -64.5t106 -23.5q106 0 181 75t75 181q0 98 -66 170.5t-163 82.5zM485 227q3 -1 8.5 -1.5t10 -1t8.5 -0.5q2 0 27 3q-11 19 -27 37
q-16 -18 -27 -37z" />
    <glyph glyph-name="uniE64D" unicode="&#xe64d;" 
d="M512 812q-104 0 -199 -40.5t-163.5 -109t-109 -163.5t-40.5 -199t40.5 -199t109 -163.5t163.5 -109t199 -40.5t199 40.5t163.5 109t109 163.5t40.5 199t-40.5 199t-109 163.5t-163.5 109t-199 40.5zM794 140q-10 -8 -25.5 0.5t-32.5 31.5q-14 -38 -36 -71q51 -18 51 -47
q0 -25 -39 -43t-94 -18q-66 0 -106 24q-39 -24 -106 -24q-55 0 -93.5 18t-38.5 43q0 29 50 47q-21 32 -36 71q-16 -23 -31.5 -31.5t-25.5 -0.5q-14 13 -9.5 52.5t24.5 81.5q9 20 20 35q3 124 74.5 211t171.5 87q101 0 172.5 -87t74.5 -211q10 -15 19 -35q20 -42 24.5 -81.5
t-8.5 -52.5z" />
    <glyph glyph-name="uniE64E" unicode="&#xe64e;" 
d="M513 762q91 0 174 -36.5t143 -97.5t95.5 -145.5t35.5 -177t-35.5 -177t-95.5 -145.5t-143 -97t-174 -36t-174 36t-142.5 97t-95 145.5t-35.5 177t35.5 177t95 145.5t142.5 97.5t174 36.5zM457 -23q1 0 3 -1l3 -4l2 -2q4 -4 11 -4h78q3 0 9 6q4 3 4.5 3.5t1.5 3t1 3.5v6v9
v62q0 9 -4 13l-4 4l-2 2l-1 1l-1 1h-75h-7q-7 0 -10 -3l-3 -3q0 -1 -1 -2q-5 -4 -5 -11v-6v-78zM318 529l-2 -7q-3 -7 -6.5 -17t-5.5 -18q-5 -21 -7 -36q0 -3 2 -6q3 -2 5 -6q4 -4 11 -5q5 -1 7 -1l51 -6q2 0 7 -1h12q5 -1 7 -1q1 3 2.5 13.5t1.5 11.5q3 10 7 24
q11 36 20 42q1 3 10 11.5t13 10.5q22 16 53.5 18t54.5 -10q23 -10 40.5 -30t22.5 -43q5 -28 0 -40q-3 -17 -16 -32q-1 -2 -11 -13q-1 -2 -5 -7l-5 -5l-36 -33q-2 -2 -11.5 -10.5t-14.5 -14.5q-39 -40 -50.5 -75t-11.5 -100v-2q-1 -5 2 -7l2 -2q1 -1 3 -3.5t2.5 -2.5t2 -1.5
t2 -1t3.5 0t5 0t7 0.5h10h17h27h14q1 5 1 15v13q1 18 2 27q3 23 7.5 34.5t16.5 26.5l13 15q9 10 29 28q22 18 43 42l13 15q32 36 39 75l4 19q0 3 0.5 12t0.5 10q0 35 -9 61q-10 26 -24 46l-28 30q-41 36 -102 48q-69 13 -132 -8t-99 -75q-7 -9 -9 -14q-1 -1 -4 -7.5t-4 -7.5
z" />
    <glyph glyph-name="uniE64F" unicode="&#xe64f;" 
d="M265 329l-2 4v5l-1 3v4v4v4l1 5l1 5l2 5l2 6l3 5l4 6v4l1 4l1 6l1 6l2 6l1 3l2 3l2 3l2 2v4v5v6l1 8l1 8l3 11l2 11l3 6l2 7l2 5l4 7l3 7l3 7l4 7l5 7l2 5l3 3l5 7l5 8l6 8l7 7l7 8l8 7l9 9l6 5l7 6l7 4l7 5l8 4l8 3l9 4l8 3l9 3l10 3l9 2l10 2l10 2l10 1l10 2h10h10h11
h11l10 -1l11 -1l10 -2l10 -2l11 -2l10 -3l10 -2l10 -4l9 -4l11 -4l9 -5l9 -5l9 -5l7 -6l4 -3l3 -2l7 -6l6 -6l6 -5l6 -7l5 -6l5 -7l4 -7l4 -6l4 -8l4 -6l6 -13l3 -7l2 -7l2 -7l2 -6l2 -6l1 -7l4 -11l2 -11l1 -10l1 -8l2 -12v-2l2 -2l4 -7l2 -4l2 -4l3 -6l3 -5l1 -6l2 -6
l2 -7v-3l1 -4v-4l-1 -3v-5l-1 -4l-2 -8l-2 -4l-2 -5v-1l1 -1l2 -4l10 -13l7 -10l3 -7l5 -8l4 -8l5 -9l4 -10l6 -11l3 -7l3 -6l2 -7l2 -7l2 -7l2 -6l2 -12l2 -12l1 -11v-7v-4v-5v-5l-2 -10l-2 -9l-2 -7l-1 -4l-2 -3l-1 -3l-2 -3l-2 -3l-2 -2l-2 -2l-2 -2l-3 -1l-2 -1l-2 -1
h-1h-2l-1 1l-4 1l-2 2l-1 1l-2 1l-2 2l-3 4l-4 4l-3 5l-2 4l-3 5l-4 8l-5 9h-1l-1 -1l-2 -3l-1 -2l-3 -9l-5 -11l-6 -15l-4 -7l-5 -7l-5 -9l-6 -7l-3 -4l-3 -4l-9 -8l1 -1l1 -1l5 -2l17 -9l7 -4l7 -4l7 -5l7 -6l2 -2l3 -3l2 -3l2 -3l1 -3l1 -3l1 -4v-3v-2v-3l-1 -2l-1 -2v-2
l-1 -2l-4 -5l-3 -3l-2 -2l-2 -2l-4 -4l-6 -3l-5 -3l-6 -2l-7 -3l-4 -1l-3 -1l-8 -2l-8 -2l-8 -1l-9 -2h-10l-9 -2h-9h-10h-10l-11 1l-10 1l-11 2l-10 1l-11 1l-11 3l-10 2l-11 3l-10 4l-11 3l-5 2l-5 2l-3 1h-3h-4h-5l-10 1l-5 1h-7l-4 -3l-6 -4l-8 -4l-8 -5l-6 -2l-5 -2
l-12 -5l-7 -2l-7 -2l-9 -2h-6h-6l-7 -1l-7 -1h-8h-7h-17l-18 1l-17 1l-8 2l-9 1l-8 1l-8 2l-8 2l-7 2l-7 3l-7 2l-6 3l-5 3l-5 4l-2 2l-2 2l-2 2l-2 2l-1 3l-1 2l-2 5l-1 2v3v2v4v2l1 3v2v4v3l2 3l1 4l2 4l1 2l2 2l3 4l2 2l3 1l2 2l4 1l3 2l3 2l4 1l4 1l5 1l5 1h5l6 1h1l1 1
v1l-1 1l-3 2l-7 6l-6 4l-6 6l-6 5l-6 8l-7 8l-3 5l-3 5l-3 5l-3 6l-4 6l-2 6l-3 7l-3 7l-2 7l-2 8h-1l-1 1l-2 -1l-1 -2l-1 -1v-2l-1 -2l-4 -7l-2 -3l-2 -4l-3 -4l-4 -4l-3 -4l-5 -4l-4 -3l-4 -3l-4 -3l-5 -2l-6 -1l-5 -1h-1l-1 1l-1 2l-2 1l-2 5l-1 3l-1 3l-1 4l-1 4l-1 9
l-1 5v6v12l1 12v7l2 7l1 7l2 7l2 7l2 8l3 8l3 7l4 8l4 8l5 8l5 8l5 7l6 9l5 6l6 6l6 7l3 3l4 4l5 4l5 5l9 8l7 4z" />
    <glyph glyph-name="uniE650" unicode="&#xe650;" 
d="M522.5 776q-96.5 0 -185 -37.5t-152 -101.5t-101.5 -152t-38 -185t38 -185.5t101.5 -152t152 -101.5t185 -38t185 38t152 101.5t101.5 152t38 185.5t-38 185t-101.5 152t-152 101.5t-185 37.5zM708 81q-28 -28 -112 3.5t-170.5 118t-118 170.5t-4.5 112q3 2 11.5 11
t12.5 13t12.5 10.5t14 8.5t14.5 3t16.5 -2.5t17.5 -10.5t19 -19q18 -23 26 -39.5t4.5 -29.5t-9 -20.5t-19.5 -20.5l-5 -5q-25 -26 69 -120t120 -69q2 2 5 6q13 13 20.5 18.5t20.5 9t29.5 -4t39.5 -26.5q12 -9 19 -19t10.5 -17.5t2 -16.5t-3 -14.5t-8.5 -14t-10.5 -12.5
t-12.5 -12.5t-11 -10.5z" />
    <glyph glyph-name="uniE651" unicode="&#xe651;" 
d="M890 166q0 -100 -63 -120.5t-313 -20.5h-2q-223 0 -280 11q-70 14 -88 60q-10 25 -10 70q0 47 19 107.5t54.5 122.5t81 114.5t104.5 85.5t119 33t119 -33t104.5 -85.5t81 -114.5t54.5 -122.5t19 -107.5v0zM513 563q-67 0 -114 -47.5t-47 -114.5t47 -114t114 -47t114 47
t47 114t-47 114.5t-114 47.5v0zM176 444q27 42 59.5 79t74 69.5t93.5 51.5t108 19q55 0 108.5 -20.5t95.5 -53.5t73.5 -69.5t53.5 -74.5q22 -35 55.5 -34t51.5 34q4 9 7 26.5t0 46t-15 58t-43 60t-78 54t-126.5 38.5t-182.5 15t-184 -15.5t-127.5 -40t-78 -55t-42.5 -61
t-13.5 -58t1 -45t8.5 -23.5q14 -23 37 -27t41 4.5t23 21.5v0zM176 444z" />
    <glyph glyph-name="uniE652" unicode="&#xe652;" 
d="M512 894q-104 0 -198.5 -40.5t-162.5 -108.5t-108.5 -162.5t-40.5 -198.5t40.5 -198.5t108.5 -162.5t162.5 -108.5t198.5 -40.5t198.5 40.5t162.5 108.5t108.5 162.5t40.5 198.5t-40.5 198.5t-108.5 162.5t-162.5 108.5t-198.5 40.5zM810 32q-1 -1 -3 -1q-8 0 -14 5.5
t-7 13.5q-11 104 -90 174q-57 51 -133 66q-21 4 -42 4h-1h-8h-8q-22 0 -43 -4q-76 -15 -133 -66q-79 -70 -90 -174q-1 -9 -8 -14t-16 -4t-14 7.5t-4 15.5q13 119 103 200q49 43 110 64q-30 16 -53 40q-65 65 -65 156.5t64.5 156.5t156.5 65t156.5 -65t64.5 -156.5
t-65 -156.5q-23 -24 -53 -40q61 -21 110 -64q90 -81 103 -200q1 -9 -4 -15.5t-14 -7.5zM691 515q0 74 -52.5 126.5t-126.5 52.5t-126.5 -52.5t-52.5 -126.5t52 -126q34 -34 79 -46q19 -6 40 -7q8 1 16 0q21 1 40 7q45 12 79 46q52 52 52 126z" />
    <glyph glyph-name="uniE653" unicode="&#xe653;" 
d="M133 -64q-2 75 26 147q36 93 113 156q64 52 145 74q3 1 6 -1q50 -15 100 -14q41 1 84 14q4 1 7 1q107 -29 181 -107q71 -76 94 -178q9 -39 10 -84l-1 -8h-765zM528 840q19 -3 20 -3q66 -9 117 -51q58 -49 77 -122q12 -44 6 -90q-12 -84 -74 -142q-51 -47 -122 -59
q-62 -11 -123 14t-100 76q-38 51 -45 106q-18 148 103 232q48 34 112 38l4 1h25z" />
    <glyph glyph-name="uniE654" unicode="&#xe654;" 
d="M853 750h-682q-44 0 -75.5 -31t-31.5 -75v-683q0 -44 31.5 -75t75.5 -31h682q45 0 76 31t31 75v683q0 44 -31 75t-76 31zM512 633q81 0 138.5 -57.5t57.5 -138.5t-57.5 -138.5t-138.5 -57.5t-138.5 57.5t-57.5 138.5t57.5 138.5t138.5 57.5zM176 -39q0 95 49 174.5
t130 122.5q68 -59 157.5 -59t156.5 59q81 -43 130 -122.5t49 -174.5h-672z" />
    <glyph glyph-name="uniE655" unicode="&#xe655;" 
d="M200 344l-2 6l-1 6l-1 4v5v5v5l1 6l2 7l2 6l3 8l4 8l5 7v6l1 5l1 7l2 7l2 9l2 4l2 3l2 4l3 3v5v7v7l2 10l1 11l3 14l4 14l3 8l3 9l3 8l4 8l4 9l4 9l6 9l6 10l3 5l3 4l7 10l7 10l8 10l8 10l10 10l9 10l12 10l7 7l9 7l10 6l10 6l9 5l11 5l11 5l12 4l11 4l12 4l12 2l13 3
l13 2l13 2l13 1l14 1h13h13h14l14 -1l13 -2l14 -2l13 -3l13 -3l13 -3l14 -4l13 -4l12 -5l13 -6l12 -6l12 -6l11 -8l10 -6l4 -4l5 -3l9 -8l8 -7l7 -8l8 -8l6 -9l7 -8l5 -9l5 -8l6 -10l4 -8l8 -17l4 -9l3 -9l3 -9l2 -8l2 -8l2 -8l5 -16l2 -13l2 -13l1 -10l3 -16v-3l2 -3l5 -8
l3 -6l3 -5l4 -7l3 -7l2 -8l3 -8l1 -9l1 -4l1 -5v-5l-1 -4v-6l-1 -5l-3 -11l-2 -5l-2 -6v-2l1 -1l2 -5l12 -17l10 -14l4 -9l6 -9l6 -11l6 -11l6 -13l7 -15l4 -8l3 -9l3 -9l3 -8l3 -9l2 -8l3 -16l2 -16l2 -14v-8v-7v-6l-1 -7l-2 -12l-2 -11l-3 -10l-1 -5l-3 -4l-2 -4l-2 -4
l-3 -3l-2 -3l-3 -3l-3 -2l-3 -2l-3 -1l-2 -1h-2h-2l-2 1l-5 2l-2 1l-2 2l-3 2l-2 3l-4 4l-5 6l-3 6l-4 6l-4 6l-5 10l-5 11l-1 1h-1l-2 -2l-2 -3l-2 -4l-4 -10l-6 -16l-7 -18l-6 -9l-6 -10l-7 -10l-7 -11l-4 -5l-5 -5l-10 -10l1 -1l1 -2l5 -3l23 -10l9 -6l9 -5l10 -7l8 -7
l4 -3l3 -3l3 -5l2 -4l1 -4l2 -4l1 -4l1 -5l-1 -3v-3l-1 -3l-2 -3v-2l-2 -3l-4 -5l-3 -5l-3 -3l-3 -2l-6 -5l-7 -4l-7 -4l-8 -3l-9 -3l-5 -2l-4 -1l-10 -3l-11 -2l-10 -2l-12 -2h-12l-12 -2h-12h-13h-13l-14 1l-12 1l-14 2l-14 1l-14 2l-14 4l-13 3l-14 3l-14 5l-13 4l-7 3
l-7 2l-4 2h-4h-5h-6l-13 1l-7 1l-8 1l-6 -5l-7 -5l-10 -5l-11 -6l-7 -3l-7 -3l-16 -6l-8 -2l-9 -3l-13 -2l-7 -1h-8l-9 -1l-10 -1h-9h-10h-22l-22 1l-23 2l-11 2l-11 1l-10 2l-11 2l-10 3l-10 2l-9 4l-8 3l-8 4l-7 4l-6 5l-3 2l-3 3l-2 3l-2 3l-2 3l-1 3l-2 6l-1 3l-1 4v3
l1 4v3l1 4v2v6v4l2 4l1 5l3 5l2 2l1 3l5 5l3 2l3 2l3 3l5 1l3 2l5 3l5 1l6 2l6 1l6 1l6 1l8 1h2l1 1v1l-1 2l-4 2l-10 8l-7 6l-7 6l-8 8l-8 10l-10 10l-3 6l-5 6l-4 7l-3 8l-5 7l-3 9l-4 8l-4 9l-2 9l-3 11l-1 1h-1v1h-1l-1 -1l-1 -1l-1 -2l-1 -2l-1 -2l-1 -3l-5 -8l-2 -5
l-4 -4l-4 -5l-4 -6l-5 -5l-5 -5l-5 -5l-6 -3l-6 -4l-6 -2l-7 -2l-6 -1h-1h-1l-1 1l-2 2l-2 2l-2 6l-2 4l-2 4l-1 6l-1 5l-2 11l-1 7v7v15l1 17l1 8l2 9l1 10l3 8l3 10l3 10l4 10l3 10l6 10l4 10l6 10l7 11l7 10l7 11l7 7l7 9l9 8l3 4l5 5l7 6l7 6l11 10l9 6z" />
    <glyph glyph-name="uniE656" unicode="&#xe656;" 
d="M512 -121q-114 0 -211 56.5t-153.5 153.5t-56.5 211t56.5 211t153.5 153.5t211 56.5t211 -56.5t153.5 -153.5t56.5 -211t-56.5 -211t-153.5 -153.5t-211 -56.5zM512 675q-102 0 -188.5 -50t-136.5 -136.5t-50 -188.5t50 -188.5t136.5 -136.5t188.5 -50t188.5 50
t136.5 136.5t50 188.5t-50 188.5t-136.5 136.5t-188.5 50zM728 266h-227q-10 0 -16.5 6.5t-6.5 16.5v250q0 9 6.5 16t16 7t16 -7t6.5 -16v-228h205q10 0 16.5 -6.5t6.5 -16t-6.5 -16t-16.5 -6.5z" />
  </font>
</defs>
</svg>
